<svg width="313" height="319" viewBox="0 0 313 319" fill="none" xmlns="http://www.w3.org/2000/svg">
<g clip-path="url(#clip0_201_59)">
<path d="M291.263 235.895C291.263 235.895 291.564 236.196 291.263 236.196V235.895Z" fill="#E5E5E5"/>
<path fill-rule="evenodd" clip-rule="evenodd" d="M312.048 176.853C312.522 175.085 312.624 173.239 312.349 171.43L311.446 158.477V156.67C311.867 154.69 311.968 152.657 311.747 150.645C311.326 148.86 311.024 147.048 310.843 145.223V144.319C310.988 143.95 311.007 143.544 310.898 143.163C310.789 142.782 310.558 142.447 310.241 142.211C309.337 141.307 309.638 139.801 309.036 138.596C309.337 137.692 308.433 137.391 308.433 136.788H308.132V130.161C308.171 129.997 308.163 129.826 308.11 129.666C308.057 129.507 307.96 129.365 307.831 129.257C307.641 126.148 306.928 123.093 305.722 120.22H305.421C305.57 119.519 305.537 118.791 305.326 118.106C305.115 117.421 304.733 116.801 304.216 116.304L303.614 114.196C303.614 113.593 303.011 113.292 302.71 112.689L300.902 109.978C300.725 107.729 300.001 105.558 298.794 103.652C297.932 101.042 296.822 98.5202 295.48 96.1214L293.974 93.1091L293.07 91.6029C293.07 91.3016 293.07 91.3016 292.769 91.3016C292.668 90.7038 292.345 90.166 291.865 89.7955C291.865 88.5905 290.962 88.2893 290.359 87.6868C290.326 87.3856 290.228 87.0951 290.072 86.8352C289.916 86.5752 289.705 86.352 289.455 86.1806H289.154C288.853 84.9757 287.949 83.7707 287.648 82.5658C287.347 81.3609 287.347 80.7584 286.142 80.1559L284.636 77.746C284.033 77.1436 284.334 76.2399 283.431 75.6374L278.912 70.5164L278.008 69.9139C277.286 67.5864 275.8 65.5701 273.791 64.1904C273.313 63.8947 272.904 63.4996 272.592 63.0318C272.28 62.5639 272.073 62.0344 271.984 61.4793C271.984 59.6719 270.779 59.0694 269.574 58.4669C269.448 57.8785 269.13 57.3486 268.67 56.9607V56.3583C268.068 55.1533 268.068 53.6472 266.863 52.7434H265.357C265.055 52.7099 264.765 52.6118 264.505 52.4559C264.245 52.2999 264.022 52.0898 263.85 51.8397V46.7187C262.344 47.02 261.742 45.2125 260.236 45.5138H258.428C257.223 44.6101 256.621 43.1039 254.813 43.1039C254.406 42.9061 254.055 42.6095 253.792 42.2412C253.529 41.8728 253.362 41.4445 253.307 40.9952C253.313 40.8081 253.275 40.6222 253.197 40.4522C253.119 40.2822 253.002 40.1329 252.856 40.0159C252.709 39.899 252.538 39.8177 252.355 39.7785C252.172 39.7394 251.982 39.7434 251.801 39.7903C251.5 39.1878 250.897 38.5854 250.295 38.5854C249.692 38.5854 247.885 37.6816 246.981 36.7779C246.077 35.8742 244.27 34.9705 242.764 34.0668L240.354 32.5606C239.752 31.6569 238.848 31.6569 237.944 31.3557C237.342 30.7532 236.438 31.0545 236.438 30.452C236.438 29.8495 233.426 27.4396 231.016 27.4396H230.112C229.51 26.8372 228.907 26.2347 227.702 26.2347C226.497 26.2347 226.497 25.331 226.196 25.0297L223.786 23.8248C221.677 23.2223 220.171 21.4149 218.063 21.1137C217.248 20.3959 216.288 19.8628 215.248 19.5508C214.208 19.2389 213.113 19.1554 212.038 19.3063C211.134 17.8001 209.327 19.005 208.122 18.1013L206.917 17.4988C206.314 16.8964 205.109 17.1976 205.109 16.2939C205.109 15.3902 204.808 15.0889 203.603 15.3902H201.193C200.96 15.155 200.676 14.9779 200.362 14.8732C200.048 14.7685 199.713 14.7392 199.386 14.7877H199.085C197.88 13.2815 196.072 14.1852 194.867 14.1852H194.566C193.964 13.2815 193.06 13.2815 192.156 12.9803H191.554C190.938 12.455 190.213 12.0742 189.431 11.8657C188.649 11.6572 187.831 11.6263 187.035 11.7754C186.714 11.4716 186.335 11.2352 185.922 11.08C185.508 10.9248 185.067 10.8539 184.625 10.8716C182.899 10.212 181.032 10.0047 179.203 10.2692L176.793 9.06423C174.685 8.16052 172.275 9.06423 170.166 8.46176C167.188 7.89304 164.139 7.79142 161.129 8.16052H147.875C147.272 8.16052 146.67 8.16052 146.368 9.06423H144.862C143.959 9.06423 143.356 8.76299 142.452 9.36547C141.796 9.67539 141.061 9.78036 140.344 9.6667C138.631 9.5869 136.914 9.68787 135.223 9.96794L126.487 12.0766H123.173C122.571 11.7754 122.27 12.3778 121.968 12.3778C120.396 12.9052 118.784 13.3081 117.149 13.5828C116.245 13.5828 115.642 13.2815 114.739 13.884C113.818 13.988 112.964 14.4149 112.329 15.0889C110.823 15.3902 109.316 14.4865 108.111 15.6914C107.648 15.7123 107.194 15.8303 106.778 16.0379C106.363 16.2455 105.996 16.5379 105.702 16.8964H105.4C104.798 16.8964 103.894 16.8964 103.894 17.8001H103.593C101.047 18.4407 98.6107 19.4559 96.3632 20.8124C95.7607 20.8124 95.1583 20.8124 95.1583 21.7161C95.1583 22.6198 93.9533 21.7161 93.6521 22.6198C93.3509 23.5236 91.8447 22.6198 91.2422 23.8248H90.941L88.2299 25.331C87.6949 25.5725 87.2664 26.0009 87.0249 26.5359C86.1604 26.4233 85.2817 26.4996 84.4496 26.7597C83.6175 27.0197 82.8517 27.4573 82.2051 28.0421L71.5 37.5L57 42.5C54.8333 45.1667 49.3 51.2 44.5 54C39.7 56.8 37.3123 61.9603 36.7185 64.1904C35.8148 65.6966 35.5136 67.2028 34.3086 68.4077C33.4939 69.2682 32.8771 70.2963 32.5012 71.4201C30.995 73.5287 30.6938 75.9386 28.8864 78.0473C27.079 80.1559 28.8864 78.951 28.5851 79.2522L27.3802 80.4572C26.9234 81.0826 26.6144 81.8036 26.4765 82.5658C26.1753 82.5658 26.1753 83.1683 26.1753 83.4695L24.6691 86.1806L24.0666 86.7831C23.1629 87.0843 22.5604 87.3856 22.5604 88.5905C21.8288 89.6592 21.4114 90.9115 21.3555 92.2054L20.753 93.4103C19.8493 94.6152 18.6444 95.8202 18.9456 97.3264L18.0419 98.8325C17.4394 99.1338 17.1382 99.7363 17.1382 100.339C16.8489 100.464 16.6062 100.676 16.444 100.946C16.2819 101.217 16.2086 101.531 16.2345 101.845C15.0295 102.447 15.632 103.351 15.0295 104.255C14.4271 105.159 14.7283 106.363 14.1258 107.267C13.5234 108.171 12.9209 109.677 12.9209 111.183H12.6196L11.4147 112.991C10.8122 113.593 11.4147 114.497 11.1135 115.099C10.9188 115.224 10.7791 115.418 10.723 115.642C10.667 115.866 10.6989 116.103 10.8122 116.304V117.509L9.90852 118.714C9.33582 119.051 8.90701 119.588 8.70358 120.22V122.931C8.42224 123.702 8.31925 124.526 8.40234 125.341C8.03645 125.86 7.79226 126.454 7.68794 127.08C7.58363 127.706 7.62189 128.347 7.79987 128.956C7.25361 130.298 6.94771 131.726 6.89616 133.173V135.282C6.29369 135.885 6.59493 136.788 6.29369 137.692H5.69122C5.37567 139.074 5.27408 140.496 5.38998 141.909V144.018C4.64674 147.174 4.34264 150.418 4.48628 153.657V155.164C3.94357 155.737 3.62311 156.484 3.58257 157.272V165.406C3.40651 165.965 3.36936 166.56 3.47432 167.137C3.57929 167.714 3.82322 168.257 4.18504 168.719V171.43C3.83687 174.554 4.0408 177.715 4.78751 180.769C4.79766 181.076 4.88597 181.375 5.0441 181.639C5.20223 181.903 5.42495 182.121 5.69122 182.275C5.69122 183.48 5.38998 184.986 6.29369 186.191C7.1974 187.396 6.29369 187.396 6.89616 187.697V189.505C6.89616 190.71 6.29369 191.914 7.1974 193.119C7.49071 193.781 7.59498 194.511 7.49863 195.228V198.843C7.43515 199.101 7.42923 199.369 7.48129 199.63C7.53336 199.89 7.64213 200.136 7.79987 200.349C7.8304 201.376 8.26314 202.349 9.00481 203.06C9.03834 203.361 9.13642 203.652 9.29237 203.912C9.44833 204.172 9.65848 204.395 9.90852 204.566V208.482C9.90852 209.386 10.511 209.687 10.8122 210.29C10.7293 210.48 10.6865 210.685 10.6865 210.892C10.6865 211.1 10.7293 211.305 10.8122 211.495C11.1135 212.097 10.8122 212.7 11.4147 213.001C12.0172 213.302 12.3184 214.206 12.3184 214.808C12.2519 215.33 12.3576 215.859 12.6196 216.315L14.7283 219.929C14.7044 220.21 14.7465 220.492 14.8511 220.754C14.9557 221.015 15.1199 221.249 15.3308 221.436C15.7401 223.869 16.7785 226.154 18.3431 228.063L19.5481 230.473C19.7469 230.95 19.8493 231.462 19.8493 231.979C19.8493 232.496 19.7469 233.008 19.5481 233.485V235.594C19.5481 236.799 18.0419 237.702 18.3431 239.208V239.811C18.3431 240.715 17.1382 241.92 17.7407 242.823C18.3431 243.727 19.5481 241.92 20.753 242.522H21.6567L22.2592 243.125C23.1629 243.727 23.7654 242.221 24.6691 242.522C25.5728 242.823 25.874 243.125 26.4765 243.426L27.3802 244.932C27.3392 245.365 27.4329 245.8 27.6486 246.177C27.8643 246.555 28.1914 246.856 28.5851 247.041C28.5851 247.342 28.5851 247.643 28.8864 247.643C28.9733 248.355 29.2402 249.032 29.6619 249.612C30.0835 250.192 30.6461 250.655 31.2963 250.957C31.3954 251.352 31.5823 251.719 31.8431 252.032C32.1038 252.345 32.4318 252.595 32.8025 252.764C34.3877 255.161 36.097 257.474 37.9235 259.693C37.9235 260.897 38.8272 261.5 40.0321 262.102C41.2371 262.705 40.9358 263.609 41.5383 264.211C41.8395 264.814 42.7432 264.814 42.7432 265.416C43.6109 266.767 44.8728 267.819 46.3581 268.428C46.9605 268.73 46.6593 269.633 47.563 269.935C48.4667 270.236 49.0692 272.043 50.2741 272.344H50.5754C50.6089 272.646 50.707 272.936 50.8629 273.196C51.0189 273.456 51.229 273.679 51.4791 273.851L57.5038 279.875C57.7663 280.321 58.1144 280.71 58.528 281.02C58.9416 281.33 59.4126 281.556 59.9137 281.683C60.8696 282.878 62.1134 283.811 63.5285 284.394L64.131 284.996C64.131 285.599 64.4322 286.201 65.3359 286.201C66.2396 286.201 67.7458 287.707 68.9508 288.611C70.1557 289.515 69.5532 290.117 70.4569 290.117C70.8504 290.379 71.1686 290.739 71.38 291.162C71.5913 291.585 71.6885 292.055 71.6619 292.527C71.6619 293.13 71.6619 293.732 72.2644 293.732C74.3137 294.381 76.1746 295.518 77.6866 297.046C78.5903 297.347 79.494 296.745 80.0965 297.347C81.0359 298.107 82.2022 298.531 83.4101 298.552C84.8685 299.623 86.4983 300.437 88.2299 300.962C89.1336 301.564 89.736 303.07 90.941 303.372C92.1459 303.673 94.857 305.179 96.9657 305.782C98.2827 306.504 99.7062 307.013 101.183 307.288C101.785 307.589 102.087 308.192 102.99 308.192C104.914 308.362 106.771 308.981 108.413 309.999L110.823 310.601C111.124 311.505 112.027 311.505 112.931 311.204C113.835 310.903 114.739 311.204 115.341 311.806C115.637 312.227 116.06 312.541 116.548 312.703C117.036 312.866 117.563 312.868 118.052 312.71H120.763C120.964 312.891 121.21 313.014 121.475 313.067C121.74 313.12 122.015 313.101 122.27 313.011C123.776 313.011 125.282 314.517 127.089 314.216C128.897 313.915 128.294 314.819 129.198 314.216L132.21 315.421C133.415 315.722 134.62 315.12 135.825 316.024C136.468 316.378 137.218 316.485 137.934 316.325C139.459 316.343 140.976 316.546 142.452 316.927L149.983 318.132C150.521 318.198 151.066 318.152 151.584 317.996C152.103 317.841 152.583 317.579 152.996 317.229H158.418C158.655 317.546 158.989 317.777 159.37 317.886C159.751 317.995 160.158 317.976 160.526 317.831H174.986C175.224 317.862 175.466 317.821 175.68 317.714C175.895 317.607 176.073 317.438 176.191 317.229C177.721 317.31 179.254 317.106 180.709 316.626H186.734L187.939 316.024C188.953 316.099 189.972 315.997 190.951 315.722C191.855 315.722 193.06 316.325 193.964 315.12C194.867 313.915 195.47 314.517 196.072 314.819L198.181 314.216C199.085 314.216 199.988 314.517 200.29 313.614H200.892C201.495 313.915 201.796 313.313 202.097 313.011C202.398 312.71 203.302 313.011 203.603 312.108C203.904 311.204 205.712 312.409 206.314 311.505H206.616C208.699 311.373 210.74 310.863 212.64 309.999L216.556 307.589H216.858C217.494 307.654 218.136 307.548 218.718 307.283C219.3 307.019 219.801 306.605 220.171 306.083C221.078 305.52 222.117 305.208 223.184 305.179L225.292 303.673C226.196 303.071 227.401 302.769 228.003 301.564C228.606 300.359 228.606 301.564 228.907 301.263C229.208 300.962 232.522 299.456 234.329 298.552C236.137 297.648 235.835 297.949 236.438 297.347L239.149 296.142L240.354 295.238C241.258 294.937 242.764 294.636 243.065 293.13C243.366 291.624 244.27 292.226 245.174 291.925C245.575 291.744 245.896 291.422 246.077 291.021C247.584 291.021 248.186 289.214 249.692 288.912C250.719 288.383 251.638 287.668 252.403 286.804C252.605 286.917 252.842 286.949 253.066 286.893C253.29 286.837 253.484 286.697 253.608 286.503C253.848 286.503 254.078 286.407 254.247 286.238C254.417 286.068 254.512 285.839 254.512 285.599L255.717 284.394C256.847 283.888 257.793 283.047 258.428 281.984L259.031 281.08C259.984 280.872 260.836 280.34 261.44 279.574C262.344 279.574 262.947 278.67 263.549 278.068C264.513 277.401 265.249 276.455 265.658 275.357C266.478 275.044 267.204 274.525 267.766 273.851L268.369 272.646C269.273 272.646 269.574 271.742 269.875 271.139C270.267 270.922 270.606 270.62 270.867 270.255C271.127 269.891 271.303 269.472 271.381 269.031H271.683C271.982 268.975 272.257 268.83 272.472 268.615C272.687 268.4 272.832 268.125 272.887 267.826C274.467 266.491 275.882 264.975 277.105 263.307C277.773 263.031 278.352 262.576 278.778 261.991C279.203 261.406 279.458 260.715 279.515 259.994L280.72 258.789C281.021 258.488 281.623 258.186 281.623 257.584C282.124 257.103 282.443 256.465 282.527 255.776C283.129 254.873 284.334 254.27 284.334 253.065C284.334 251.86 285.238 252.463 284.937 251.86C284.636 251.258 287.046 250.655 287.046 249.149C287.046 247.643 288.552 246.438 289.455 245.233H289.757C290.007 245.062 290.217 244.839 290.373 244.579C290.529 244.319 290.627 244.028 290.66 243.727C291.658 242.333 292.468 240.814 293.07 239.208C293.203 239.041 293.299 238.846 293.351 238.639C293.403 238.431 293.41 238.214 293.372 238.004C294.33 237.373 295.15 236.553 295.781 235.594L296.685 233.485C297.589 232.581 297.288 231.075 298.191 229.87L298.794 227.46V226.557C299.396 226.255 299.697 225.954 299.396 225.352V224.147C299.56 224.054 299.7 223.924 299.805 223.767C299.91 223.61 299.976 223.43 299.999 223.243C300.3 221.737 302.107 221.134 301.806 219.327V218.724C302.71 218.122 302.71 217.52 302.409 216.616C302.409 215.712 303.312 214.808 303.312 213.905L304.216 212.398C304.444 212.274 304.643 212.103 304.799 211.895C304.955 211.687 305.065 211.448 305.12 211.194C306.259 209.015 307.071 206.681 307.53 204.265L308.132 202.759C308.433 202.759 308.433 202.458 308.433 202.458V201.855C308.515 200.242 308.414 198.626 308.132 197.035C309.036 195.831 308.433 194.324 308.735 193.119C309.044 192.81 309.264 192.423 309.37 191.998C309.476 191.573 309.465 191.128 309.337 190.71C310.341 189.63 310.974 188.258 311.144 186.793C312.048 185.89 311.144 184.986 311.446 184.082C311.834 182.507 311.936 180.874 311.747 179.263C312.039 178.495 312.142 177.668 312.048 176.853ZM291.263 235.895C291.263 235.895 291.564 236.196 291.263 236.196V235.895Z" fill="#E5E5E5"/>
<path d="M194.386 173.091C193.977 173.091 193.625 172.994 193.33 172.801C193.034 172.608 192.807 172.342 192.648 172.003C192.489 171.664 192.409 171.277 192.409 170.841C192.409 170.398 192.491 170.007 192.653 169.668C192.818 169.327 193.047 169.061 193.341 168.869C193.636 168.676 193.981 168.58 194.375 168.58C194.682 168.58 194.958 168.636 195.205 168.75C195.451 168.864 195.652 169.023 195.81 169.227C195.967 169.432 196.064 169.67 196.102 169.943H195.432C195.381 169.744 195.267 169.568 195.091 169.415C194.917 169.259 194.682 169.182 194.386 169.182C194.125 169.182 193.896 169.25 193.699 169.386C193.504 169.521 193.351 169.711 193.241 169.957C193.134 170.202 193.08 170.489 193.08 170.818C193.08 171.155 193.133 171.449 193.239 171.699C193.347 171.949 193.498 172.143 193.693 172.281C193.89 172.42 194.121 172.489 194.386 172.489C194.561 172.489 194.719 172.458 194.861 172.398C195.003 172.337 195.123 172.25 195.222 172.136C195.32 172.023 195.39 171.886 195.432 171.727H196.102C196.064 171.985 195.971 172.217 195.821 172.423C195.673 172.628 195.477 172.791 195.233 172.912C194.991 173.031 194.708 173.091 194.386 173.091ZM198.855 173.091C198.461 173.091 198.116 172.997 197.818 172.81C197.523 172.622 197.292 172.36 197.125 172.023C196.96 171.686 196.878 171.292 196.878 170.841C196.878 170.386 196.96 169.99 197.125 169.651C197.292 169.312 197.523 169.048 197.818 168.861C198.116 168.673 198.461 168.58 198.855 168.58C199.249 168.58 199.594 168.673 199.889 168.861C200.187 169.048 200.418 169.312 200.582 169.651C200.749 169.99 200.832 170.386 200.832 170.841C200.832 171.292 200.749 171.686 200.582 172.023C200.418 172.36 200.187 172.622 199.889 172.81C199.594 172.997 199.249 173.091 198.855 173.091ZM198.855 172.489C199.154 172.489 199.401 172.412 199.594 172.259C199.787 172.105 199.93 171.903 200.023 171.653C200.116 171.403 200.162 171.133 200.162 170.841C200.162 170.549 200.116 170.277 200.023 170.026C199.93 169.774 199.787 169.57 199.594 169.415C199.401 169.259 199.154 169.182 198.855 169.182C198.556 169.182 198.31 169.259 198.116 169.415C197.923 169.57 197.78 169.774 197.688 170.026C197.595 170.277 197.548 170.549 197.548 170.841C197.548 171.133 197.595 171.403 197.688 171.653C197.78 171.903 197.923 172.105 198.116 172.259C198.31 172.412 198.556 172.489 198.855 172.489ZM202.526 170.375V173H201.856V168.636H202.504V169.318H202.56C202.663 169.097 202.818 168.919 203.026 168.784C203.235 168.648 203.504 168.58 203.833 168.58C204.129 168.58 204.387 168.64 204.609 168.761C204.83 168.881 205.003 169.062 205.126 169.307C205.249 169.549 205.31 169.856 205.31 170.227V173H204.64V170.273C204.64 169.93 204.551 169.663 204.373 169.472C204.195 169.278 203.951 169.182 203.64 169.182C203.426 169.182 203.235 169.228 203.066 169.321C202.899 169.414 202.768 169.549 202.671 169.727C202.575 169.905 202.526 170.121 202.526 170.375ZM209.626 169.614L209.024 169.784C208.986 169.684 208.93 169.586 208.857 169.491C208.785 169.395 208.686 169.315 208.561 169.253C208.436 169.19 208.276 169.159 208.081 169.159C207.814 169.159 207.591 169.221 207.413 169.344C207.237 169.465 207.149 169.619 207.149 169.807C207.149 169.973 207.21 170.105 207.331 170.202C207.452 170.298 207.642 170.379 207.899 170.443L208.547 170.602C208.937 170.697 209.228 170.842 209.419 171.037C209.61 171.23 209.706 171.479 209.706 171.784C209.706 172.034 209.634 172.258 209.49 172.455C209.348 172.652 209.149 172.807 208.893 172.92C208.638 173.034 208.34 173.091 208.001 173.091C207.556 173.091 207.188 172.994 206.896 172.801C206.605 172.608 206.42 172.326 206.342 171.955L206.979 171.795C207.039 172.03 207.154 172.206 207.322 172.324C207.493 172.441 207.715 172.5 207.99 172.5C208.303 172.5 208.551 172.434 208.734 172.301C208.92 172.167 209.013 172.006 209.013 171.818C209.013 171.667 208.96 171.54 208.854 171.438C208.748 171.333 208.585 171.256 208.365 171.205L207.638 171.034C207.238 170.939 206.945 170.793 206.757 170.594C206.571 170.393 206.479 170.142 206.479 169.841C206.479 169.595 206.548 169.377 206.686 169.188C206.826 168.998 207.017 168.849 207.257 168.741C207.5 168.634 207.774 168.58 208.081 168.58C208.513 168.58 208.852 168.674 209.098 168.864C209.346 169.053 209.522 169.303 209.626 169.614ZM212.613 168.636V169.205H210.352V168.636H212.613ZM211.011 167.591H211.681V171.75C211.681 171.939 211.709 172.081 211.763 172.176C211.82 172.269 211.892 172.331 211.979 172.364C212.068 172.394 212.162 172.409 212.261 172.409C212.335 172.409 212.395 172.405 212.442 172.398C212.49 172.388 212.528 172.381 212.556 172.375L212.692 172.977C212.647 172.994 212.584 173.011 212.502 173.028C212.421 173.047 212.317 173.057 212.192 173.057C212.003 173.057 211.817 173.016 211.636 172.935C211.456 172.853 211.306 172.729 211.187 172.562C211.069 172.396 211.011 172.186 211.011 171.932V167.591Z" fill="#CCBBBB"/>
<path d="M81.2841 270.182V276H80.6136V270.182H81.2841ZM84.3416 276.091C83.9212 276.091 83.5585 275.998 83.2536 275.812C82.9505 275.625 82.7166 275.364 82.5518 275.028C82.389 274.691 82.3075 274.299 82.3075 273.852C82.3075 273.405 82.389 273.011 82.5518 272.67C82.7166 272.328 82.9458 272.061 83.2393 271.869C83.5348 271.676 83.8795 271.58 84.2734 271.58C84.5007 271.58 84.7251 271.617 84.9467 271.693C85.1683 271.769 85.37 271.892 85.5518 272.062C85.7337 272.231 85.8786 272.455 85.9865 272.733C86.0945 273.011 86.1484 273.354 86.1484 273.761V274.045H82.7848V273.466H85.4666C85.4666 273.22 85.4174 273 85.3189 272.807C85.2223 272.614 85.084 272.461 84.9041 272.349C84.7261 272.238 84.5159 272.182 84.2734 272.182C84.0064 272.182 83.7753 272.248 83.5803 272.381C83.3871 272.511 83.2384 272.682 83.1342 272.892C83.0301 273.102 82.978 273.328 82.978 273.568V273.955C82.978 274.284 83.0348 274.563 83.1484 274.793C83.264 275.02 83.424 275.193 83.6286 275.312C83.8331 275.43 84.0708 275.489 84.3416 275.489C84.5178 275.489 84.6768 275.464 84.8189 275.415C84.9628 275.364 85.0869 275.288 85.1911 275.188C85.2952 275.085 85.3757 274.958 85.4325 274.807L86.0803 274.989C86.0121 275.208 85.8975 275.402 85.7365 275.568C85.5755 275.733 85.3767 275.862 85.1399 275.955C84.9032 276.045 84.6371 276.091 84.3416 276.091ZM89.0661 271.636V272.205H86.8047V271.636H89.0661ZM87.4638 270.591H88.1342V274.75C88.1342 274.939 88.1617 275.081 88.2166 275.176C88.2734 275.269 88.3454 275.331 88.4325 275.364C88.5215 275.394 88.6153 275.409 88.7138 275.409C88.7876 275.409 88.8482 275.405 88.8956 275.398C88.9429 275.388 88.9808 275.381 89.0092 275.375L89.1456 275.977C89.1001 275.994 89.0367 276.011 88.9553 276.028C88.8738 276.047 88.7706 276.057 88.6456 276.057C88.4562 276.057 88.2706 276.016 88.0888 275.935C87.9089 275.853 87.7592 275.729 87.6399 275.562C87.5225 275.396 87.4638 275.186 87.4638 274.932V270.591Z" fill="#BAC9D3"/>
<path d="M262.557 161.636V162.205H260.205V161.636H262.557ZM260.909 166V161.034C260.909 160.784 260.968 160.576 261.085 160.409C261.203 160.242 261.355 160.117 261.543 160.034C261.73 159.951 261.928 159.909 262.136 159.909C262.301 159.909 262.436 159.922 262.54 159.949C262.644 159.975 262.722 160 262.773 160.023L262.58 160.602C262.545 160.591 262.498 160.577 262.438 160.56C262.379 160.543 262.301 160.534 262.205 160.534C261.983 160.534 261.823 160.59 261.724 160.702C261.628 160.813 261.58 160.977 261.58 161.193V166H260.909ZM265.089 166.091C264.696 166.091 264.35 165.997 264.053 165.81C263.757 165.622 263.526 165.36 263.359 165.023C263.195 164.686 263.112 164.292 263.112 163.841C263.112 163.386 263.195 162.99 263.359 162.651C263.526 162.312 263.757 162.048 264.053 161.861C264.35 161.673 264.696 161.58 265.089 161.58C265.483 161.58 265.828 161.673 266.124 161.861C266.421 162.048 266.652 162.312 266.817 162.651C266.983 162.99 267.067 163.386 267.067 163.841C267.067 164.292 266.983 164.686 266.817 165.023C266.652 165.36 266.421 165.622 266.124 165.81C265.828 165.997 265.483 166.091 265.089 166.091ZM265.089 165.489C265.389 165.489 265.635 165.412 265.828 165.259C266.021 165.105 266.164 164.903 266.257 164.653C266.35 164.403 266.396 164.133 266.396 163.841C266.396 163.549 266.35 163.277 266.257 163.026C266.164 162.774 266.021 162.57 265.828 162.415C265.635 162.259 265.389 162.182 265.089 162.182C264.79 162.182 264.544 162.259 264.351 162.415C264.158 162.57 264.015 162.774 263.922 163.026C263.829 163.277 263.783 163.549 263.783 163.841C263.783 164.133 263.829 164.403 263.922 164.653C264.015 164.903 264.158 165.105 264.351 165.259C264.544 165.412 264.79 165.489 265.089 165.489ZM268.09 166V161.636H268.738V162.295H268.783C268.863 162.08 269.007 161.904 269.215 161.77C269.424 161.635 269.658 161.568 269.92 161.568C269.969 161.568 270.031 161.569 270.104 161.571C270.178 161.573 270.234 161.576 270.272 161.58V162.261C270.249 162.256 270.197 162.247 270.116 162.236C270.036 162.223 269.952 162.216 269.863 162.216C269.651 162.216 269.461 162.26 269.295 162.349C269.13 162.437 268.999 162.558 268.903 162.713C268.808 162.866 268.761 163.042 268.761 163.239V166H268.09Z" fill="#0BCEB2"/>
<path d="M45.625 111.818L45.5256 119.136H44.3722L44.2727 111.818H45.625ZM44.9489 122.08C44.7036 122.08 44.4931 121.992 44.3175 121.816C44.1418 121.64 44.054 121.43 44.054 121.185C44.054 120.939 44.1418 120.729 44.3175 120.553C44.4931 120.378 44.7036 120.29 44.9489 120.29C45.1941 120.29 45.4046 120.378 45.5803 120.553C45.7559 120.729 45.8438 120.939 45.8438 121.185C45.8438 121.347 45.8023 121.496 45.7195 121.632C45.6399 121.768 45.5322 121.877 45.3963 121.96C45.2637 122.04 45.1146 122.08 44.9489 122.08Z" fill="#2E4356"/>
<path d="M219.614 123V118.636H220.284V123H219.614ZM219.955 117.909C219.824 117.909 219.711 117.865 219.616 117.776C219.524 117.687 219.477 117.58 219.477 117.455C219.477 117.33 219.524 117.223 219.616 117.134C219.711 117.045 219.824 117 219.955 117C220.085 117 220.197 117.045 220.29 117.134C220.384 117.223 220.432 117.33 220.432 117.455C220.432 117.58 220.384 117.687 220.29 117.776C220.197 117.865 220.085 117.909 219.955 117.909ZM223.455 118.636V119.205H221.103V118.636H223.455ZM221.808 123V118.034C221.808 117.784 221.866 117.576 221.984 117.409C222.101 117.242 222.254 117.117 222.441 117.034C222.629 116.951 222.826 116.909 223.035 116.909C223.2 116.909 223.334 116.922 223.438 116.949C223.542 116.975 223.62 117 223.671 117.023L223.478 117.602C223.444 117.591 223.397 117.577 223.336 117.56C223.277 117.543 223.2 117.534 223.103 117.534C222.881 117.534 222.721 117.59 222.623 117.702C222.526 117.813 222.478 117.977 222.478 118.193V123H221.808Z" fill="#ADADAD"/>
<path d="M66.2781 233.405V232.762C66.6467 232.762 66.9023 232.689 67.0451 232.542C67.1879 232.395 67.2592 232.157 67.2592 231.829V231.123C67.2592 230.729 67.3136 230.413 67.4222 230.177C67.533 229.938 67.6864 229.758 67.8825 229.637C68.0806 229.515 68.315 229.434 68.5856 229.394C68.8562 229.353 69.1523 229.333 69.4741 229.333V230.349C69.2227 230.349 69.0309 230.382 68.8988 230.449C68.7688 230.512 68.6804 230.613 68.6335 230.749C68.5866 230.883 68.5632 231.054 68.5632 231.26V232.194C68.5632 232.355 68.5334 232.51 68.4737 232.657C68.4141 232.802 68.3033 232.931 68.1413 233.044C67.9794 233.154 67.7482 233.243 67.4478 233.309C67.1474 233.373 66.7575 233.405 66.2781 233.405ZM69.4741 237.422C69.1523 237.422 68.8562 237.402 68.5856 237.362C68.315 237.321 68.0806 237.24 67.8825 237.119C67.6864 236.997 67.533 236.817 67.4222 236.578C67.3136 236.342 67.2592 236.027 67.2592 235.632V234.923C67.2592 234.595 67.1879 234.357 67.0451 234.21C66.9023 234.063 66.6467 233.99 66.2781 233.99V233.347C66.7575 233.347 67.1474 233.38 67.4478 233.446C67.7482 233.51 67.9794 233.599 68.1413 233.712C68.3033 233.822 68.4141 233.951 68.4737 234.098C68.5334 234.243 68.5632 234.398 68.5632 234.562V235.495C68.5632 235.7 68.5866 235.869 68.6335 236.003C68.6804 236.14 68.7688 236.24 68.8988 236.304C69.0309 236.37 69.2227 236.403 69.4741 236.403V237.422ZM66.2781 233.99V232.762H67.4254V233.99H66.2781Z" fill="#0BCEB2" fill-opacity="0.41"/>
<path d="M73.4038 233.347V233.99C73.0373 233.99 72.7816 234.063 72.6367 234.21C72.494 234.357 72.4226 234.595 72.4226 234.923V235.632C72.4226 236.027 72.3672 236.342 72.2564 236.578C72.1477 236.817 71.9943 236.997 71.7962 237.119C71.6001 237.24 71.3668 237.321 71.0962 237.362C70.8278 237.402 70.5316 237.422 70.2077 237.422V236.403C70.4592 236.403 70.6499 236.37 70.7798 236.304C70.9119 236.24 71.0014 236.14 71.0483 236.003C71.0952 235.869 71.1186 235.7 71.1186 235.495V234.562C71.1186 234.398 71.1484 234.243 71.2081 234.098C71.2678 233.951 71.3786 233.822 71.5405 233.712C71.7024 233.599 71.9336 233.51 72.234 233.446C72.5344 233.38 72.9244 233.347 73.4038 233.347ZM70.2077 229.333C70.5316 229.333 70.8278 229.353 71.0962 229.394C71.3668 229.434 71.6001 229.515 71.7962 229.637C71.9943 229.758 72.1477 229.938 72.2564 230.177C72.3672 230.413 72.4226 230.729 72.4226 231.123V231.829C72.4226 232.157 72.494 232.395 72.6367 232.542C72.7816 232.689 73.0373 232.762 73.4038 232.762V233.405C72.9244 233.405 72.5344 233.373 72.234 233.309C71.9336 233.243 71.7024 233.154 71.5405 233.044C71.3786 232.931 71.2678 232.802 71.2081 232.657C71.1484 232.51 71.1186 232.355 71.1186 232.194V231.26C71.1186 231.054 71.0952 230.883 71.0483 230.749C71.0014 230.613 70.9119 230.512 70.7798 230.449C70.6499 230.382 70.4592 230.349 70.2077 230.349V229.333ZM73.4038 232.762V233.99H72.2564V232.762H73.4038Z" fill="#0BCEB2" fill-opacity="0.41"/>
<path d="M87.6172 239.89V237.64L96.6172 233.677V236.266L90.4553 238.739L90.5384 238.605V238.925L90.4553 238.79L96.6172 241.264V243.853L87.6172 239.89Z" fill="#0BCEB2"/>
<path d="M116.087 230.909V244H113.697L108.001 235.761H107.906V244H105.138V230.909H107.567L113.217 239.142H113.332V230.909H116.087ZM123.015 244H118.374V230.909H123.053C124.37 230.909 125.503 231.171 126.454 231.695C127.404 232.215 128.135 232.963 128.646 233.939C129.162 234.915 129.42 236.082 129.42 237.442C129.42 238.805 129.162 239.977 128.646 240.957C128.135 241.937 127.4 242.69 126.441 243.214C125.486 243.738 124.344 244 123.015 244ZM121.142 241.629H122.9C123.718 241.629 124.406 241.484 124.964 241.194C125.527 240.9 125.949 240.446 126.23 239.832C126.515 239.214 126.658 238.418 126.658 237.442C126.658 236.474 126.515 235.684 126.23 235.07C125.949 234.457 125.529 234.005 124.971 233.715C124.412 233.425 123.724 233.281 122.906 233.281H121.142V241.629ZM135.636 230.909H139.049L142.654 239.705H142.808L146.413 230.909H149.826V244H147.142V235.479H147.033L143.645 243.936H141.817L138.429 235.447H138.32V244H135.636V230.909ZM156.491 244.192C155.499 244.192 154.64 243.981 153.915 243.559C153.195 243.133 152.639 242.54 152.247 241.782C151.855 241.019 151.659 240.135 151.659 239.129C151.659 238.115 151.855 237.229 152.247 236.47C152.639 235.707 153.195 235.115 153.915 234.693C154.64 234.267 155.499 234.054 156.491 234.054C157.484 234.054 158.341 234.267 159.061 234.693C159.786 235.115 160.344 235.707 160.736 236.47C161.128 237.229 161.324 238.115 161.324 239.129C161.324 240.135 161.128 241.019 160.736 241.782C160.344 242.54 159.786 243.133 159.061 243.559C158.341 243.981 157.484 244.192 156.491 244.192ZM156.504 242.082C156.956 242.082 157.333 241.955 157.636 241.699C157.938 241.439 158.166 241.085 158.32 240.638C158.477 240.19 158.556 239.681 158.556 239.11C158.556 238.539 158.477 238.03 158.32 237.582C158.166 237.135 157.938 236.781 157.636 236.521C157.333 236.261 156.956 236.131 156.504 236.131C156.048 236.131 155.665 236.261 155.354 236.521C155.047 236.781 154.815 237.135 154.657 237.582C154.504 238.03 154.427 238.539 154.427 239.11C154.427 239.681 154.504 240.19 154.657 240.638C154.815 241.085 155.047 241.439 155.354 241.699C155.665 241.955 156.048 242.082 156.504 242.082ZM163.094 244V234.182H165.734V235.895H165.837C166.016 235.286 166.316 234.825 166.738 234.514C167.16 234.199 167.646 234.041 168.195 234.041C168.332 234.041 168.479 234.05 168.636 234.067C168.794 234.084 168.933 234.107 169.052 234.137V236.553C168.924 236.515 168.747 236.481 168.521 236.451C168.295 236.421 168.089 236.406 167.901 236.406C167.501 236.406 167.143 236.494 166.827 236.668C166.516 236.839 166.269 237.077 166.086 237.384C165.907 237.691 165.817 238.045 165.817 238.445V244H163.094ZM178.629 236.982L176.136 237.135C176.093 236.922 176.002 236.73 175.861 236.56C175.72 236.385 175.535 236.246 175.305 236.144C175.079 236.038 174.808 235.984 174.493 235.984C174.071 235.984 173.715 236.074 173.426 236.253C173.136 236.428 172.991 236.662 172.991 236.956C172.991 237.19 173.085 237.388 173.272 237.55C173.46 237.712 173.781 237.842 174.237 237.94L176.014 238.298C176.969 238.494 177.681 238.81 178.149 239.244C178.618 239.679 178.852 240.25 178.852 240.957C178.852 241.601 178.663 242.165 178.284 242.651C177.909 243.137 177.393 243.516 176.737 243.789C176.085 244.058 175.333 244.192 174.48 244.192C173.181 244.192 172.145 243.921 171.374 243.38C170.607 242.835 170.157 242.093 170.025 241.156L172.703 241.015C172.784 241.411 172.98 241.714 173.291 241.923C173.602 242.127 174.001 242.229 174.487 242.229C174.964 242.229 175.347 242.138 175.637 241.955C175.931 241.767 176.08 241.526 176.085 241.232C176.08 240.985 175.976 240.783 175.771 240.625C175.567 240.463 175.252 240.339 174.825 240.254L173.125 239.915C172.166 239.724 171.453 239.391 170.984 238.918C170.519 238.445 170.287 237.842 170.287 237.109C170.287 236.479 170.458 235.935 170.798 235.479C171.144 235.023 171.627 234.672 172.249 234.425C172.876 234.178 173.609 234.054 174.448 234.054C175.688 234.054 176.664 234.316 177.376 234.84C178.092 235.364 178.509 236.078 178.629 236.982ZM183.367 244.185C182.74 244.185 182.182 244.077 181.692 243.859C181.202 243.638 180.814 243.312 180.529 242.881C180.248 242.447 180.107 241.906 180.107 241.258C180.107 240.712 180.207 240.254 180.407 239.884C180.608 239.513 180.88 239.214 181.225 238.989C181.571 238.763 181.963 238.592 182.402 238.477C182.845 238.362 183.309 238.281 183.795 238.234C184.366 238.175 184.826 238.119 185.176 238.068C185.525 238.013 185.779 237.932 185.936 237.825C186.094 237.719 186.173 237.561 186.173 237.352V237.314C186.173 236.909 186.045 236.596 185.789 236.374C185.538 236.153 185.18 236.042 184.716 236.042C184.225 236.042 183.836 236.151 183.546 236.368C183.256 236.581 183.064 236.849 182.971 237.173L180.452 236.969C180.58 236.372 180.831 235.857 181.206 235.422C181.581 234.983 182.065 234.646 182.657 234.412C183.254 234.173 183.944 234.054 184.728 234.054C185.274 234.054 185.796 234.118 186.294 234.246C186.797 234.374 187.243 234.572 187.63 234.84C188.022 235.109 188.331 235.454 188.557 235.876C188.783 236.293 188.896 236.794 188.896 237.378V244H186.314V242.638H186.237C186.079 242.945 185.868 243.216 185.604 243.45C185.34 243.68 185.022 243.862 184.652 243.994C184.281 244.121 183.853 244.185 183.367 244.185ZM184.147 242.306C184.547 242.306 184.901 242.227 185.208 242.07C185.515 241.908 185.755 241.69 185.93 241.418C186.105 241.145 186.192 240.836 186.192 240.491V239.449C186.107 239.504 185.99 239.555 185.841 239.602C185.696 239.645 185.532 239.685 185.348 239.724C185.165 239.758 184.982 239.79 184.799 239.82C184.615 239.845 184.449 239.869 184.3 239.89C183.98 239.937 183.701 240.011 183.463 240.114C183.224 240.216 183.039 240.354 182.907 240.529C182.775 240.7 182.708 240.913 182.708 241.168C182.708 241.539 182.843 241.822 183.111 242.018C183.384 242.21 183.729 242.306 184.147 242.306ZM193.732 230.909V244H191.009V230.909H193.732ZM195.913 244V234.182H198.636V244H195.913ZM197.281 232.916C196.876 232.916 196.529 232.782 196.239 232.513C195.953 232.241 195.811 231.915 195.811 231.536C195.811 231.161 195.953 230.839 196.239 230.57C196.529 230.298 196.876 230.161 197.281 230.161C197.686 230.161 198.031 230.298 198.316 230.57C198.606 230.839 198.751 231.161 198.751 231.536C198.751 231.915 198.606 232.241 198.316 232.513C198.031 232.782 197.686 232.916 197.281 232.916ZM203.54 238.324V244H200.817V234.182H203.412V235.914H203.527C203.745 235.343 204.109 234.891 204.62 234.559C205.132 234.222 205.752 234.054 206.48 234.054C207.162 234.054 207.757 234.203 208.264 234.501C208.771 234.8 209.165 235.226 209.446 235.78C209.728 236.33 209.868 236.986 209.868 237.749V244H207.145V238.234C207.15 237.634 206.996 237.165 206.685 236.828C206.374 236.487 205.946 236.317 205.4 236.317C205.034 236.317 204.71 236.396 204.429 236.553C204.152 236.711 203.934 236.941 203.777 237.244C203.623 237.542 203.544 237.902 203.54 238.324Z" fill="#0BCEB2"/>
<path d="M222.788 230.295L218.57 245.969H216.224L220.442 230.295H222.788ZM233.631 239.89L224.631 243.853V241.264L230.793 238.79L230.71 238.925V238.605L230.793 238.739L224.631 236.266V233.677L233.631 237.64V239.89Z" fill="#0BCEB2"/>
<path d="M180.602 283L179.273 278.636H179.977L180.92 281.977H180.966L181.898 278.636H182.614L183.534 281.966H183.58L184.523 278.636H185.227L183.898 283H183.239L182.284 279.648H182.216L181.261 283H180.602ZM186.784 280.375V283H186.114V277.182H186.784V279.318H186.841C186.943 279.093 187.097 278.914 187.301 278.781C187.508 278.647 187.782 278.58 188.125 278.58C188.422 278.58 188.683 278.639 188.906 278.759C189.13 278.876 189.303 279.057 189.426 279.301C189.551 279.544 189.614 279.852 189.614 280.227V283H188.943V280.273C188.943 279.926 188.853 279.658 188.673 279.469C188.495 279.277 188.248 279.182 187.932 279.182C187.712 279.182 187.515 279.228 187.341 279.321C187.169 279.414 187.032 279.549 186.932 279.727C186.833 279.905 186.784 280.121 186.784 280.375ZM190.84 283V278.636H191.511V283H190.84ZM191.181 277.909C191.05 277.909 190.938 277.865 190.843 277.776C190.75 277.687 190.704 277.58 190.704 277.455C190.704 277.33 190.75 277.223 190.843 277.134C190.938 277.045 191.05 277 191.181 277C191.312 277 191.424 277.045 191.516 277.134C191.611 277.223 191.658 277.33 191.658 277.455C191.658 277.58 191.611 277.687 191.516 277.776C191.424 277.865 191.312 277.909 191.181 277.909ZM193.409 277.182V283H192.739V277.182H193.409ZM196.467 283.091C196.046 283.091 195.683 282.998 195.379 282.812C195.076 282.625 194.842 282.364 194.677 282.028C194.514 281.691 194.433 281.299 194.433 280.852C194.433 280.405 194.514 280.011 194.677 279.67C194.842 279.328 195.071 279.061 195.364 278.869C195.66 278.676 196.004 278.58 196.398 278.58C196.626 278.58 196.85 278.617 197.072 278.693C197.293 278.769 197.495 278.892 197.677 279.062C197.859 279.231 198.004 279.455 198.112 279.733C198.219 280.011 198.273 280.354 198.273 280.761V281.045H194.91V280.466H197.592C197.592 280.22 197.542 280 197.444 279.807C197.347 279.614 197.209 279.461 197.029 279.349C196.851 279.238 196.641 279.182 196.398 279.182C196.131 279.182 195.9 279.248 195.705 279.381C195.512 279.511 195.363 279.682 195.259 279.892C195.155 280.102 195.103 280.328 195.103 280.568V280.955C195.103 281.284 195.16 281.563 195.273 281.793C195.389 282.02 195.549 282.193 195.754 282.312C195.958 282.43 196.196 282.489 196.467 282.489C196.643 282.489 196.802 282.464 196.944 282.415C197.088 282.364 197.212 282.288 197.316 282.188C197.42 282.085 197.501 281.958 197.558 281.807L198.205 281.989C198.137 282.208 198.022 282.402 197.862 282.568C197.701 282.733 197.502 282.862 197.265 282.955C197.028 283.045 196.762 283.091 196.467 283.091Z" fill="#A0B99C"/>
<path d="M95.4762 150.821C96.2915 150.821 96.9524 150.16 96.9524 149.345C96.9524 148.53 96.2915 147.869 95.4762 147.869C94.6609 147.869 94 148.53 94 149.345C94 150.16 94.6609 150.821 95.4762 150.821Z" fill="#2E4356"/>
<path d="M102.119 147.869H99.9049C99.5134 147.869 99.1379 148.025 98.8611 148.301C98.5842 148.578 98.4287 148.954 98.4287 149.345C98.4287 149.737 98.5842 150.112 98.8611 150.389C99.1379 150.666 99.5134 150.821 99.9049 150.821H102.119C102.511 150.821 102.886 150.666 103.163 150.389C103.44 150.112 103.595 149.737 103.595 149.345C103.595 148.954 103.44 148.578 103.163 148.301C102.886 148.025 102.511 147.869 102.119 147.869Z" fill="#2E4356"/>
<path d="M181.209 153.774H175.077C174.706 153.803 174.36 153.972 174.107 154.245C173.855 154.519 173.714 154.878 173.714 155.25C173.714 155.622 173.855 155.981 174.107 156.254C174.36 156.528 174.706 156.696 175.077 156.726H181.209C181.58 156.696 181.926 156.528 182.179 156.254C182.431 155.981 182.572 155.622 182.572 155.25C182.572 154.878 182.431 154.519 182.179 154.245C181.926 153.972 181.58 153.803 181.209 153.774ZM136.923 153.774H130.791C130.42 153.803 130.074 153.972 129.821 154.245C129.569 154.519 129.429 154.878 129.429 155.25C129.429 155.622 129.569 155.981 129.821 156.254C130.074 156.528 130.42 156.696 130.791 156.726H136.923C137.294 156.696 137.641 156.528 137.893 156.254C138.146 155.981 138.286 155.622 138.286 155.25C138.286 154.878 138.146 154.519 137.893 154.245C137.641 153.972 137.294 153.803 136.923 153.774ZM170.762 153.774H141.238C140.847 153.774 140.471 153.929 140.194 154.206C139.918 154.483 139.762 154.858 139.762 155.25C139.762 155.641 139.918 156.017 140.194 156.294C140.471 156.571 140.847 156.726 141.238 156.726H153.003V158.202H147.143C146.752 158.202 146.376 158.358 146.099 158.635C145.822 158.911 145.667 159.287 145.667 159.678C145.667 160.07 145.822 160.445 146.099 160.722C146.376 160.999 146.752 161.155 147.143 161.155H165.595C165.987 161.155 166.362 160.999 166.639 160.722C166.916 160.445 167.072 160.07 167.072 159.678C167.072 159.287 166.916 158.911 166.639 158.635C166.362 158.358 165.987 158.202 165.595 158.202H158.997V156.726H170.762C171.154 156.726 171.529 156.571 171.806 156.294C172.083 156.017 172.238 155.641 172.238 155.25C172.238 154.858 172.083 154.483 171.806 154.206C171.529 153.929 171.154 153.774 170.762 153.774Z" fill="#0BCEB2"/>
<path d="M137.548 77.2259V73.3214C137.548 73.0605 137.48 72.8041 137.349 72.5785C137.218 72.3528 137.029 72.166 136.802 72.0371L126.469 66.1324C126.244 66.0053 125.99 65.9392 125.732 65.9408C125.474 65.9425 125.22 66.0116 124.997 66.1415C124.774 66.2714 124.589 66.4574 124.46 66.6812C124.331 66.9049 124.263 67.1584 124.262 67.4167V83.2636L118.357 78.5176V66.4645C119.547 66.1099 120.568 65.3391 121.236 64.293C121.904 63.2469 122.173 61.9954 121.994 60.7673C121.814 59.5393 121.199 58.4167 120.26 57.605C119.322 56.7933 118.122 56.3466 116.881 56.3466C115.64 56.3466 114.44 56.7933 113.502 57.605C112.563 58.4167 111.948 59.5393 111.768 60.7673C111.589 61.9954 111.858 63.2469 112.526 64.293C113.194 65.3391 114.216 66.1099 115.405 66.4645V79.2262C115.405 79.4473 115.455 79.6654 115.551 79.8646C115.647 80.0639 115.786 80.2392 115.958 80.3776L124.077 86.895C124.134 86.9435 124.196 86.9855 124.262 87.0205V102.845C124.261 103.197 124.387 103.538 124.616 103.805L128.691 108.558V120.774C127.501 121.128 126.479 121.899 125.812 122.945C125.144 123.991 124.875 125.243 125.054 126.471C125.233 127.699 125.849 128.821 126.787 129.633C127.726 130.445 128.926 130.892 130.167 130.892C131.408 130.892 132.607 130.445 133.546 129.633C134.485 128.821 135.1 127.699 135.279 126.471C135.458 125.243 135.19 123.991 134.522 122.945C133.854 121.899 132.832 121.128 131.643 120.774V108.012C131.644 107.66 131.518 107.319 131.289 107.052L127.214 102.299V69.9631L134.595 74.1776V77.2259C133.406 77.5805 132.384 78.3514 131.716 79.3975C131.049 80.4436 130.78 81.6951 130.959 82.9232C131.138 84.1512 131.753 85.2737 132.692 86.0855C133.631 86.8972 134.83 87.3439 136.071 87.3439C137.313 87.3439 138.512 86.8972 139.451 86.0855C140.39 85.2737 141.005 84.1512 141.184 82.9232C141.363 81.6951 141.094 80.4436 140.427 79.3975C139.759 78.3514 138.737 77.5805 137.548 77.2259ZM114.667 61.5119C114.667 61.074 114.797 60.6458 115.04 60.2817C115.283 59.9176 115.629 59.6338 116.034 59.4662C116.438 59.2986 116.883 59.2547 117.313 59.3402C117.743 59.4256 118.137 59.6365 118.447 59.9462C118.756 60.2558 118.967 60.6504 119.053 61.0799C119.138 61.5094 119.094 61.9547 118.927 62.3593C118.759 62.7639 118.475 63.1097 118.111 63.353C117.747 63.5963 117.319 63.7262 116.881 63.7262C116.59 63.7266 116.302 63.6696 116.033 63.5584C115.764 63.4473 115.52 63.2842 115.314 63.0785C115.109 62.8728 114.946 62.6286 114.835 62.3597C114.723 62.0909 114.666 61.8028 114.667 61.5119ZM132.381 125.726C132.381 126.164 132.251 126.592 132.008 126.956C131.765 127.321 131.419 127.604 131.014 127.772C130.609 127.94 130.164 127.983 129.735 127.898C129.305 127.812 128.911 127.602 128.601 127.292C128.291 126.982 128.08 126.588 127.995 126.158C127.91 125.729 127.953 125.283 128.121 124.879C128.289 124.474 128.572 124.128 128.937 123.885C129.301 123.642 129.729 123.512 130.167 123.512C130.458 123.512 130.746 123.569 131.015 123.68C131.283 123.791 131.528 123.954 131.733 124.16C131.939 124.365 132.102 124.61 132.213 124.878C132.324 125.147 132.381 125.435 132.381 125.726ZM136.071 84.3929C135.634 84.3929 135.205 84.263 134.841 84.0197C134.477 83.7764 134.193 83.4305 134.026 83.0259C133.858 82.6213 133.814 82.1761 133.9 81.7466C133.985 81.3171 134.196 80.9225 134.506 80.6128C134.815 80.3032 135.21 80.0923 135.64 80.0068C136.069 79.9214 136.514 79.9652 136.919 80.1328C137.323 80.3004 137.669 80.5842 137.913 80.9484C138.156 81.3125 138.286 81.7406 138.286 82.1786C138.286 82.4695 138.229 82.7576 138.118 83.0264C138.007 83.2952 137.844 83.5395 137.638 83.7452C137.432 83.9509 137.188 84.114 136.919 84.2251C136.651 84.3362 136.362 84.3932 136.071 84.3929Z" fill="#2E4356"/>
<path d="M151.136 78.1855L145.667 72.7089V61.512C145.667 61.1204 145.511 60.745 145.234 60.4681C144.957 60.1913 144.582 60.0358 144.19 60.0358C143.799 60.0358 143.423 60.1913 143.147 60.4681C142.87 60.745 142.714 61.1204 142.714 61.512V73.3215C142.714 73.5152 142.752 73.7071 142.827 73.8859C142.901 74.0646 143.011 74.2266 143.15 74.3622L148.619 79.8389V101.495L137.547 112.566V101.893C138.737 101.539 139.759 100.768 140.426 99.7216C141.094 98.6755 141.363 97.424 141.184 96.1959C141.005 94.9679 140.389 93.8454 139.451 93.0336C138.512 92.2219 137.312 91.7752 136.071 91.7752C134.83 91.7752 133.631 92.2219 132.692 93.0336C131.753 93.8454 131.138 94.9679 130.959 96.1959C130.78 97.424 131.048 98.6755 131.716 99.7216C132.384 100.768 133.406 101.539 134.595 101.893V116.131C134.595 116.423 134.682 116.708 134.843 116.951C135.005 117.193 135.234 117.383 135.503 117.496C135.684 117.569 135.877 117.607 136.071 117.607C136.265 117.608 136.457 117.57 136.636 117.495C136.815 117.42 136.977 117.31 137.112 117.172L151.136 103.148C151.274 103.012 151.384 102.85 151.459 102.672C151.534 102.493 151.572 102.301 151.571 102.107V79.2262C151.572 79.0325 151.534 78.8406 151.459 78.6618C151.384 78.4831 151.274 78.3211 151.136 78.1855ZM136.071 99.1548C135.633 99.1548 135.205 99.0249 134.841 98.7816C134.477 98.5383 134.193 98.1925 134.026 97.7879C133.858 97.3833 133.814 96.9381 133.9 96.5085C133.985 96.079 134.196 95.6845 134.506 95.3748C134.815 95.0651 135.21 94.8542 135.639 94.7688C136.069 94.6833 136.514 94.7272 136.919 94.8948C137.323 95.0624 137.669 95.3462 137.912 95.7103C138.156 96.0745 138.286 96.5026 138.286 96.9405C138.286 97.2314 138.229 97.5195 138.118 97.7883C138.007 98.0572 137.844 98.3014 137.638 98.5071C137.432 98.7128 137.188 98.8759 136.919 98.987C136.65 99.0982 136.362 99.1552 136.071 99.1548ZM117.619 110.44V100.417C118.808 100.062 119.83 99.2915 120.498 98.2454C121.166 97.1993 121.434 95.9478 121.255 94.7197C121.076 93.4917 120.461 92.3692 119.522 91.5574C118.583 90.7457 117.384 90.299 116.143 90.299C114.902 90.299 113.702 90.7457 112.763 91.5574C111.825 92.3692 111.209 93.4917 111.03 94.7197C110.851 95.9478 111.12 97.1993 111.788 98.2454C112.455 99.2915 113.477 100.062 114.667 100.417V110.44C113.477 110.795 112.455 111.566 111.788 112.612C111.12 113.658 110.851 114.909 111.03 116.137C111.209 117.366 111.825 118.488 112.763 119.3C113.702 120.112 114.902 120.558 116.143 120.558C117.384 120.558 118.583 120.112 119.522 119.3C120.461 118.488 121.076 117.366 121.255 116.137C121.434 114.909 121.166 113.658 120.498 112.612C119.83 111.566 118.808 110.795 117.619 110.44ZM113.928 95.4643C113.928 95.0264 114.058 94.5983 114.302 94.2341C114.545 93.87 114.891 93.5862 115.295 93.4186C115.7 93.251 116.145 93.2072 116.575 93.2926C117.004 93.378 117.399 93.5889 117.708 93.8986C118.018 94.2083 118.229 94.6028 118.314 95.0323C118.4 95.4619 118.356 95.9071 118.188 96.3117C118.021 96.7163 117.737 97.0621 117.373 97.3054C117.009 97.5487 116.581 97.6786 116.143 97.6786C115.852 97.679 115.564 97.622 115.295 97.5109C115.026 97.3997 114.782 97.2366 114.576 97.0309C114.37 96.8252 114.207 96.581 114.096 96.3122C113.985 96.0433 113.928 95.7552 113.928 95.4643ZM116.143 117.607C115.705 117.607 115.277 117.477 114.913 117.234C114.548 116.991 114.265 116.645 114.097 116.24C113.929 115.836 113.886 115.39 113.971 114.961C114.056 114.531 114.267 114.137 114.577 113.827C114.887 113.517 115.281 113.307 115.711 113.221C116.14 113.136 116.586 113.18 116.99 113.347C117.395 113.515 117.741 113.799 117.984 114.163C118.227 114.527 118.357 114.955 118.357 115.393C118.357 115.684 118.3 115.972 118.189 116.241C118.078 116.51 117.915 116.754 117.709 116.959C117.504 117.165 117.259 117.328 116.991 117.439C116.722 117.551 116.434 117.608 116.143 117.607Z" fill="#0BCEB2"/>
<path d="M212.095 147.869H209.881C209.489 147.869 209.114 148.025 208.837 148.301C208.56 148.578 208.405 148.954 208.405 149.345C208.405 149.737 208.56 150.112 208.837 150.389C209.114 150.666 209.489 150.821 209.881 150.821H212.095C212.487 150.821 212.862 150.666 213.139 150.389C213.416 150.112 213.571 149.737 213.571 149.345C213.571 148.954 213.416 148.578 213.139 148.301C212.862 148.025 212.487 147.869 212.095 147.869Z" fill="#2E4356"/>
<path d="M216.524 150.821C217.339 150.821 218 150.16 218 149.345C218 148.53 217.339 147.869 216.524 147.869C215.709 147.869 215.048 148.53 215.048 149.345C215.048 150.16 215.709 150.821 216.524 150.821Z" fill="#2E4356"/>
<path d="M205.246 147.869H188.816C189.877 146.498 190.453 144.813 190.454 143.079V140.001L192.897 138.067C193.195 137.833 193.392 137.493 193.445 137.117C193.499 136.742 193.406 136.36 193.185 136.052L191.333 133.461L194.278 132.435C194.646 132.308 194.948 132.04 195.12 131.69C195.291 131.34 195.317 130.937 195.193 130.568L193.628 125.925H197.916C198.418 125.924 198.911 125.801 199.355 125.567C199.798 125.333 200.178 124.995 200.463 124.582C200.754 124.157 200.938 123.668 201 123.157C201.062 122.645 200.999 122.126 200.817 121.644L194.528 104.919L196.322 101C196.41 100.808 196.456 100.599 196.455 100.387V92.2093C195.99 81.0492 191.436 71.6607 183.28 65.0548C175.624 59.0053 166.042 55.923 156.295 56.3748C156.198 56.3536 156.099 56.3437 156 56.3452H150.095C149.704 56.3464 149.329 56.5023 149.053 56.7789C148.776 57.0555 148.62 57.4303 148.619 57.8214V69.6309C148.618 69.8247 148.657 70.0166 148.731 70.1954C148.806 70.3741 148.916 70.5361 149.054 70.6717L154.959 76.5764C155.095 76.7148 155.257 76.8246 155.435 76.8994C155.614 76.9742 155.806 77.0125 156 77.0119H164.857C165.051 77.0125 165.243 76.9742 165.421 76.8994C165.6 76.8246 165.762 76.7148 165.898 76.5764L168.304 74.1776C169.395 74.7667 170.661 74.9435 171.871 74.6758C173.082 74.4081 174.155 73.7138 174.896 72.7197C175.636 71.7256 175.995 70.4982 175.905 69.2619C175.815 68.0255 175.283 66.8628 174.407 65.9862C173.53 65.1097 172.367 64.5779 171.131 64.488C169.895 64.3982 168.667 64.7563 167.673 65.4968C166.679 66.2374 165.985 67.311 165.717 68.5214C165.449 69.7318 165.626 70.9981 166.215 72.0888L164.244 74.0595H156.613L151.571 69.0183V59.2976H155.86C156 59.3297 156.144 59.3397 156.288 59.3271C169.426 58.8326 182.963 64.7817 189.502 77.0119H184.572C184.316 76.1544 183.842 75.3781 183.196 74.7589C182.55 74.1396 181.754 73.6987 180.887 73.4793C180.02 73.2598 179.11 73.2694 178.247 73.5071C177.385 73.7447 176.599 74.2023 175.966 74.835C175.333 75.4677 174.876 76.2538 174.638 77.1165C174.4 77.9791 174.391 78.8887 174.61 79.7561C174.83 80.6236 175.27 81.4192 175.89 82.0651C176.509 82.7109 177.285 83.185 178.143 83.4407V96.9405H167.071C166.68 96.9416 166.305 97.0975 166.029 97.3741C165.752 97.6507 165.596 98.0255 165.595 98.4166V106.536H153.786C153.592 106.535 153.4 106.573 153.221 106.648C153.042 106.723 152.881 106.833 152.745 106.971L140.935 118.781C140.797 118.916 140.687 119.078 140.612 119.257C140.538 119.436 140.499 119.628 140.5 119.821V131.845C139.311 132.2 138.289 132.97 137.621 134.017C136.953 135.063 136.684 136.314 136.864 137.542C137.043 138.77 137.658 139.893 138.597 140.704C139.535 141.516 140.735 141.963 141.976 141.963C143.217 141.963 144.417 141.516 145.355 140.704C146.294 139.893 146.909 138.77 147.089 137.542C147.268 136.314 146.999 135.063 146.331 134.017C145.664 132.97 144.642 132.2 143.452 131.845V120.434L154.398 109.488H181.095C181.37 109.488 181.639 109.411 181.872 109.266C182.106 109.122 182.294 108.915 182.416 108.669L186.845 99.8116C186.948 99.6081 187.001 99.3829 187 99.1547V93.9881H193.503V100.07L191.591 104.248C191.429 104.606 191.413 105.014 191.547 105.384L198.057 122.693C198.071 122.727 198.077 122.765 198.073 122.802C198.069 122.84 198.056 122.876 198.034 122.907C198.022 122.927 198.004 122.943 197.984 122.955C197.963 122.966 197.94 122.973 197.916 122.973H191.576C191.341 122.973 191.108 123.029 190.899 123.137C190.69 123.245 190.509 123.401 190.373 123.593C190.238 123.784 190.15 124.003 190.115 124.234C190.081 124.464 190.101 124.7 190.174 124.922L191.93 130.125L188.498 131.321C188.281 131.394 188.084 131.518 187.923 131.683C187.763 131.847 187.644 132.047 187.576 132.266C187.506 132.484 187.488 132.717 187.524 132.943C187.56 133.17 187.648 133.386 187.782 133.572L189.967 136.628L188.063 138.126C187.888 138.265 187.747 138.441 187.65 138.641C187.553 138.842 187.502 139.062 187.502 139.285V143.079C187.506 143.914 187.293 144.736 186.884 145.464C186.475 146.193 185.885 146.803 185.169 147.234C184.475 147.647 183.682 147.866 182.874 147.869C176.703 147.869 153.048 140.104 153.048 127.202V124.124C153.048 123.733 152.892 123.358 152.615 123.081C152.338 122.804 151.963 122.648 151.571 122.648C151.18 122.648 150.804 122.804 150.528 123.081C150.251 123.358 150.095 123.733 150.095 124.124V127.202C150.095 137.388 161.189 144.274 170.718 147.869H106.754C106.544 147.841 106.331 147.859 106.128 147.921C105.925 147.982 105.738 148.086 105.578 148.226C105.419 148.366 105.291 148.538 105.204 148.731C105.117 148.924 105.071 149.133 105.071 149.345C105.071 149.557 105.117 149.767 105.204 149.96C105.291 150.153 105.419 150.325 105.578 150.465C105.738 150.604 105.925 150.708 106.128 150.77C106.331 150.831 106.544 150.849 106.754 150.821H205.246C205.456 150.849 205.669 150.831 205.872 150.77C206.075 150.708 206.262 150.604 206.421 150.465C206.581 150.325 206.708 150.153 206.796 149.96C206.883 149.767 206.929 149.557 206.929 149.345C206.929 149.133 206.883 148.924 206.796 148.731C206.708 148.538 206.581 148.366 206.421 148.226C206.262 148.086 206.075 147.982 205.872 147.921C205.669 147.859 205.456 147.841 205.246 147.869ZM170.762 67.4167C171.2 67.4167 171.628 67.5465 171.992 67.7898C172.356 68.0331 172.64 68.379 172.808 68.7836C172.975 69.1882 173.019 69.6334 172.934 70.0629C172.848 70.4925 172.637 70.887 172.328 71.1967C172.018 71.5064 171.623 71.7172 171.194 71.8027C170.764 71.8881 170.319 71.8443 169.914 71.6767C169.51 71.5091 169.164 71.2253 168.921 70.8611C168.677 70.497 168.548 70.0689 168.548 69.6309C168.547 69.3401 168.604 69.0519 168.715 68.7831C168.826 68.5143 168.99 68.27 169.195 68.0643C169.401 67.8587 169.645 67.6956 169.914 67.5844C170.183 67.4733 170.471 67.4163 170.762 67.4167ZM144.19 136.798C144.19 137.236 144.061 137.664 143.817 138.028C143.574 138.392 143.228 138.676 142.823 138.843C142.419 139.011 141.974 139.055 141.544 138.969C141.115 138.884 140.72 138.673 140.41 138.363C140.101 138.054 139.89 137.659 139.804 137.23C139.719 136.8 139.763 136.355 139.93 135.95C140.098 135.546 140.382 135.2 140.746 134.956C141.11 134.713 141.538 134.583 141.976 134.583C142.267 134.583 142.555 134.64 142.824 134.751C143.093 134.862 143.337 135.025 143.543 135.231C143.748 135.437 143.911 135.681 144.023 135.95C144.134 136.219 144.191 136.507 144.19 136.798ZM177.405 78.4881C177.405 78.0501 177.535 77.622 177.778 77.2579C178.021 76.8938 178.367 76.6099 178.772 76.4424C179.176 76.2748 179.621 76.2309 180.051 76.3163C180.48 76.4018 180.875 76.6127 181.185 76.9223C181.494 77.232 181.705 77.6266 181.791 78.0561C181.876 78.4856 181.832 78.9308 181.665 79.3355C181.497 79.7401 181.213 80.0859 180.849 80.3292C180.485 80.5725 180.057 80.7024 179.619 80.7024C179.328 80.7028 179.04 80.6458 178.771 80.5346C178.502 80.4235 178.258 80.2604 178.052 80.0547C177.847 79.849 177.684 79.6047 177.572 79.3359C177.461 79.0671 177.404 78.779 177.405 78.4881ZM185.524 91.0357C185.133 91.0368 184.758 91.1927 184.481 91.4693C184.205 91.7459 184.049 92.1207 184.048 92.5119V98.8078L180.18 106.536H168.548V99.8928H179.619C179.813 99.8929 180.005 99.8547 180.184 99.7806C180.363 99.7064 180.526 99.5977 180.663 99.4606C180.8 99.3235 180.909 99.1607 180.983 98.9816C181.057 98.8025 181.095 98.6105 181.095 98.4166V83.4407C181.915 83.1911 182.662 82.7433 183.268 82.137C183.874 81.5308 184.322 80.7845 184.572 79.9643H190.89C192.319 83.496 193.174 87.2338 193.421 91.0357H185.524Z" fill="#2E4356"/>
<path d="M170.024 82.1785C169.166 82.1797 168.322 82.3927 167.566 82.7985L165.16 80.3997C165.024 80.2613 164.862 80.1515 164.684 80.0767C164.505 80.0019 164.313 79.9637 164.119 79.9642H156C155.609 79.9654 155.234 80.1213 154.958 80.3979C154.681 80.6745 154.525 81.0493 154.524 81.4404V93.25C154.525 93.463 154.572 93.6734 154.661 93.8669C154.75 94.0604 154.879 94.2326 155.041 94.3719L159.691 98.3576V106.536H162.643V97.6785C162.644 97.4652 162.598 97.2543 162.508 97.0606C162.419 96.8668 162.289 96.6948 162.126 96.5566L157.476 92.5709V82.9166H163.507L165.477 84.8873C164.939 85.8825 164.742 87.0268 164.917 88.1447C165.091 89.2626 165.628 90.2923 166.445 91.0756C167.261 91.8589 168.312 92.3527 169.436 92.4811C170.56 92.6094 171.696 92.3653 172.668 91.7862C173.64 91.2071 174.395 90.325 174.817 89.2753C175.239 88.2256 175.306 87.0663 175.005 85.9753C174.705 84.8844 174.055 83.9222 173.155 83.2363C172.255 82.5504 171.155 82.1788 170.024 82.1785ZM170.024 89.5595C169.586 89.5595 169.158 89.4296 168.794 89.1863C168.43 88.943 168.146 88.5972 167.978 88.1926C167.811 87.788 167.767 87.3427 167.852 86.9132C167.938 86.4837 168.148 86.0891 168.458 85.7795C168.768 85.4698 169.162 85.2589 169.592 85.1735C170.021 85.088 170.467 85.1319 170.871 85.2995C171.276 85.4671 171.622 85.7509 171.865 86.115C172.108 86.4791 172.238 86.9072 172.238 87.3452C172.239 87.6361 172.182 87.9242 172.07 88.193C171.959 88.4618 171.796 88.7061 171.591 88.9118C171.385 89.1175 171.141 89.2806 170.872 89.3917C170.603 89.5029 170.315 89.5599 170.024 89.5595Z" fill="#0BCEB2"/>
<path d="M133.857 61.5119C134.295 61.5119 134.723 61.382 135.087 61.1387C135.451 60.8954 135.735 60.5496 135.903 60.145C136.07 59.7404 136.114 59.2951 136.029 58.8656C135.943 58.4361 135.732 58.0415 135.423 57.7319C135.113 57.4222 134.719 57.2113 134.289 57.1259C133.859 57.0404 133.414 57.0843 133.01 57.2519C132.605 57.4195 132.259 57.7033 132.016 58.0674C131.773 58.4315 131.643 58.8597 131.643 59.2976C131.643 59.8847 131.877 60.4475 132.292 60.8626C132.707 61.2777 133.27 61.5112 133.857 61.5119ZM133.857 58.1905C134.076 58.1905 134.29 58.2554 134.472 58.377C134.654 58.4987 134.796 58.6716 134.88 58.8739C134.964 59.0762 134.986 59.2988 134.943 59.5136C134.9 59.7284 134.795 59.9256 134.64 60.0805C134.485 60.2353 134.288 60.3407 134.073 60.3835C133.858 60.4262 133.636 60.4043 133.433 60.3205C133.231 60.2367 133.058 60.0948 132.936 59.9127C132.815 59.7306 132.75 59.5166 132.75 59.2976C132.75 59.0041 132.867 58.7226 133.074 58.515C133.282 58.3075 133.563 58.1907 133.857 58.1905ZM203.87 71.8452C203.578 71.8452 203.293 71.9318 203.05 72.094C202.807 72.2562 202.618 72.4868 202.506 72.7565C202.395 73.0262 202.365 73.323 202.422 73.6094C202.479 73.8958 202.62 74.1588 202.826 74.3652C203.033 74.5717 203.296 74.7123 203.582 74.7692C203.868 74.8262 204.165 74.797 204.435 74.6852C204.705 74.5735 204.935 74.3843 205.097 74.1415C205.26 73.8988 205.346 73.6134 205.346 73.3214C205.346 72.93 205.19 72.5548 204.913 72.2781C204.637 72.0013 204.261 71.8457 203.87 71.8452ZM203.87 74.0595C203.724 74.0595 203.581 74.0162 203.46 73.9351C203.339 73.854 203.244 73.7387 203.188 73.6039C203.132 73.469 203.118 73.3206 203.146 73.1774C203.175 73.0342 203.245 72.9027 203.348 72.7995C203.451 72.6963 203.583 72.626 203.726 72.5975C203.869 72.569 204.018 72.5836 204.153 72.6395C204.287 72.6954 204.403 72.79 204.484 72.9113C204.565 73.0327 204.608 73.1754 204.608 73.3214C204.608 73.5171 204.53 73.7047 204.392 73.8431C204.253 73.9815 204.066 74.0593 203.87 74.0595ZM191.945 56.3452C191.653 56.3452 191.368 56.4318 191.125 56.594C190.882 56.7562 190.693 56.9868 190.581 57.2565C190.47 57.5262 190.44 57.823 190.497 58.1094C190.554 58.3958 190.695 58.6588 190.901 58.8652C191.108 59.0717 191.371 59.2123 191.657 59.2692C191.943 59.3262 192.24 59.297 192.51 59.1852C192.78 59.0735 193.01 58.8843 193.173 58.6415C193.335 58.3988 193.421 58.1134 193.421 57.8214C193.421 57.43 193.265 57.0548 192.988 56.7781C192.712 56.5013 192.336 56.3457 191.945 56.3452ZM191.945 58.5595C191.799 58.5595 191.656 58.5162 191.535 58.4351C191.414 58.354 191.319 58.2387 191.263 58.1039C191.207 57.969 191.193 57.8206 191.221 57.6774C191.25 57.5342 191.32 57.4027 191.423 57.2995C191.526 57.1963 191.658 57.126 191.801 57.0975C191.944 57.069 192.093 57.0836 192.228 57.1395C192.362 57.1954 192.478 57.29 192.559 57.4113C192.64 57.5327 192.683 57.6754 192.683 57.8214C192.683 58.0171 192.605 58.2047 192.467 58.3431C192.328 58.4815 192.141 58.5593 191.945 58.5595ZM204.608 40.8452C204.316 40.8452 204.031 40.9318 203.788 41.094C203.545 41.2562 203.356 41.4868 203.244 41.7565C203.133 42.0262 203.103 42.323 203.16 42.6094C203.217 42.8957 203.358 43.1588 203.564 43.3652C203.771 43.5717 204.034 43.7123 204.32 43.7692C204.607 43.8262 204.903 43.797 205.173 43.6852C205.443 43.5735 205.673 43.3843 205.836 43.1415C205.998 42.8988 206.084 42.6134 206.084 42.3214C206.084 41.93 205.928 41.5548 205.652 41.2781C205.375 41.0013 205 40.8457 204.608 40.8452ZM204.608 43.0595C204.462 43.0595 204.319 43.0162 204.198 42.9351C204.077 42.854 203.982 42.7387 203.926 42.6039C203.87 42.469 203.856 42.3206 203.884 42.1774C203.913 42.0342 203.983 41.9027 204.086 41.7995C204.189 41.6963 204.321 41.626 204.464 41.5975C204.607 41.569 204.756 41.5836 204.891 41.6395C205.026 41.6954 205.141 41.79 205.222 41.9113C205.303 42.0327 205.346 42.1754 205.346 42.3214C205.346 42.5171 205.268 42.7047 205.13 42.8431C204.992 42.9815 204.804 43.0593 204.608 43.0595ZM102.632 74.7976C102.632 74.5056 102.545 74.2202 102.383 73.9775C102.221 73.7347 101.991 73.5455 101.721 73.4338C101.451 73.322 101.154 73.2928 100.868 73.3498C100.582 73.4067 100.319 73.5473 100.112 73.7538C99.9056 73.9602 99.765 74.2233 99.7081 74.5096C99.6511 74.796 99.6803 75.0928 99.7921 75.3625C99.9038 75.6323 100.093 75.8628 100.336 76.025C100.579 76.1872 100.864 76.2738 101.156 76.2738C101.547 76.2733 101.922 76.1177 102.199 75.8409C102.476 75.5642 102.632 75.189 102.632 74.7976ZM100.418 74.7976C100.418 74.6516 100.461 74.5089 100.542 74.3875C100.623 74.2662 100.739 74.1716 100.873 74.1157C101.008 74.0598 101.157 74.0452 101.3 74.0737C101.443 74.1022 101.575 74.1725 101.678 74.2757C101.781 74.3789 101.851 74.5104 101.88 74.6536C101.908 74.7968 101.894 74.9452 101.838 75.0801C101.782 75.2149 101.687 75.3302 101.566 75.4113C101.445 75.4924 101.302 75.5357 101.156 75.5357C100.96 75.5355 100.773 75.4577 100.634 75.3193C100.496 75.1809 100.418 74.9933 100.418 74.7976Z" fill="#2E4356"/>
<path d="M99.9866 47.6837L101.083 46.2407L100.39 45.848L99.6862 47.4645H99.6626L98.9474 45.8591L98.2418 46.2636L99.3282 47.6726V47.6955L97.6299 47.4763V48.2616L99.3393 48.0424V48.0653L98.2418 49.4735L98.9001 49.8898L99.6515 48.2616H99.6744L100.367 49.878L101.095 49.4625L99.9866 48.0763V48.0535L101.73 48.2616V47.4763L99.9866 47.7073V47.6837Z" fill="#0BCEB2"/>
<path d="M122.294 43.5983L121.662 44.4095L122.041 44.6494L122.474 43.7112H122.487L122.886 44.642L123.305 44.4028L122.667 43.605V43.5917L123.671 43.7112V43.2588L122.667 43.3916V43.3784L123.299 42.5473L122.899 42.3214L122.493 43.2521H122.48L122.068 42.3281L121.662 42.5606L122.288 43.3725V43.3857L121.31 43.2588V43.7112L122.294 43.585V43.5983Z" fill="#0BCEB2"/>
<path d="M214.331 60.4203V59.6505L212.621 59.8771V59.8542L213.697 58.4385L213.017 58.0532L212.326 59.6387H212.304L211.602 58.0643L210.91 58.4614L211.975 59.8431V59.866L210.31 59.6505V60.4203L211.986 60.2055V60.2284L210.91 61.6101L211.556 62.0183L212.293 60.4203H212.315L212.994 62.0065L213.708 61.599L212.621 60.2395V60.2166L214.331 60.4203Z" fill="#0BCEB2"/>
<path d="M153.565 48.8078L154.493 47.5863L153.907 47.2542L153.311 48.6218H153.291L152.686 47.2637L152.089 47.6062L153.008 48.7982V48.8174L151.571 48.6322V49.2965L153.018 49.1112V49.1304L152.089 50.3224L152.646 50.6745L153.281 49.2965H153.301L153.887 50.6641L154.503 50.3128L153.565 49.14V49.1208L155.04 49.2965V48.6322L153.565 48.827V48.8078Z" fill="#0BCEB2"/>
<path d="M27.0479 182.253C30.1702 182.253 32.0549 184.025 32.0549 187.316V190.861C32.0549 193.871 30.1984 195.896 27.0479 195.896H24.685V200.566C24.685 200.706 24.5725 200.819 24.4318 200.819H21.1969C21.0844 200.819 21 200.706 21 200.566V182.506C21 182.366 21.0844 182.253 21.1969 182.253H27.0479ZM28.37 190.017V188.16C28.37 186.219 27.4698 186.023 25.5007 186.023H24.685V192.211H25.5007C27.0479 192.211 28.37 191.93 28.37 190.017ZM30.3672 190.664V187.148C30.3672 184.053 27.9761 183.8 26.6822 183.8H22.8847C22.8284 183.8 22.7159 183.885 22.7159 183.969V199.103C22.7159 199.3 23.0535 199.3 23.0535 199.103V194.321H26.429C28.9044 194.321 30.3672 193.449 30.3672 190.664ZM23.0535 184.166H26.6822C29.8046 184.166 30.0015 186.219 30.0015 187.148V190.664C30.0015 193.533 28.2012 193.927 26.429 193.927H23.0535V184.166ZM42.8771 189.426C45.0149 190.439 47.7998 192.042 47.7998 194.94C47.7998 195.784 47.6591 197.415 46.7308 198.793C45.6901 200.34 44.0585 201.1 41.8082 201.1C39.4172 201.1 36.6323 199.947 35.7603 197.331C35.7322 197.246 35.7603 197.162 35.8447 197.106L38.4326 194.883C38.5451 194.799 38.7139 194.799 38.7983 194.94C38.8546 195.08 38.9671 195.305 39.1077 195.587C39.5297 196.459 40.5423 197.331 41.6675 197.331C42.5395 197.331 43.721 196.852 43.721 195.502C43.721 194.208 41.9488 193.477 40.8518 193.055C39.5859 192.549 38.292 191.902 37.1949 190.945C36.0416 189.876 35.479 188.695 35.479 187.288C35.479 183.772 38.7139 182 41.78 182C44.1992 182 45.9995 183.266 47.1809 185.769C47.2372 185.882 47.1809 186.023 47.0965 186.079L44.593 187.823C44.4805 187.879 44.4242 187.879 44.3117 187.738C43.3553 186.36 42.5114 185.713 41.3862 185.713C40.7955 185.713 39.4172 185.938 39.4172 186.979C39.4172 188.245 41.7519 188.892 42.8771 189.426ZM37.7575 197.19C38.4607 198.596 40.4017 199.412 41.9769 199.412C44.0304 199.412 45.6901 198.006 45.9151 195.868C46.1964 193.252 44.1429 192.127 42.1176 191.114L41.2174 190.72C39.1359 189.792 37.6169 189.089 37.6169 187.148C37.6169 185.01 39.5859 184.025 41.5269 184.025C43.299 184.025 44.2273 185.066 44.7055 185.713C44.8743 185.938 45.1556 185.741 44.9868 185.516C44.5086 184.925 43.4959 183.688 41.5269 183.688C39.3046 183.688 37.2793 184.785 37.2793 187.148C37.2793 189.257 38.9671 190.073 41.1049 191.058L41.9769 191.48C44.7618 192.802 45.7744 194.039 45.5494 195.84C45.1275 198.709 42.9334 199.075 41.9769 199.075C39.8672 199.075 38.4607 197.809 38.0388 197.021C37.8982 196.881 37.7012 197.021 37.7575 197.19ZM54.6557 182.394L57.1029 187.12L59.494 182.394C59.5783 182.253 59.6065 182.253 59.719 182.253H62.8695C63.0383 182.253 63.1508 182.422 63.0945 182.563L59.0157 192.042V200.566C59.0157 200.706 58.9032 200.819 58.7626 200.819H55.4433C55.3589 200.819 55.2464 200.706 55.2464 200.566V192.042L51.0551 182.619C50.9988 182.422 51.0832 182.253 51.2801 182.253H54.4306C54.5431 182.253 54.5713 182.253 54.6557 182.394ZM57.2436 191.395L60.7598 184.082C60.8442 183.913 60.5629 183.772 60.4504 183.969L57.1029 190.973L53.6711 183.969C53.5586 183.772 53.2492 183.913 53.3336 184.11L56.9342 191.395V199.159C56.9342 199.356 57.2436 199.384 57.2436 199.159V191.395ZM76.2515 194.321V193.449C76.2515 193.308 76.364 193.196 76.5046 193.196H79.7114C79.852 193.196 79.9646 193.308 79.9646 193.449V195.221C79.9646 199.356 77.7423 201.1 73.551 201.1C69.641 201.1 67.0812 199.553 67.0812 195.221V187.823C67.0812 183.66 69.3597 182 73.551 182C77.5173 182 79.9646 183.519 79.9646 187.823V188.414C79.9646 188.554 79.852 188.667 79.7114 188.667H76.4765C76.3358 188.667 76.2233 188.554 76.2233 188.414V187.963C76.2233 186.416 75.07 185.769 73.6917 185.769H73.3541C72.4258 185.769 71.807 186.023 71.385 186.585C70.9912 187.12 70.8506 187.823 70.8506 188.751V194.321C70.8506 196.768 72.2289 197.303 73.3541 197.303H73.6917C75.4638 197.303 76.1952 196.121 76.2515 194.321ZM73.4948 183.744C70.4849 183.744 68.7409 184.813 68.7409 188.245V195.024C68.7409 198.146 70.3442 199.3 73.4948 199.3C76.4484 199.3 78.2205 198.231 78.2205 194.996C78.2205 194.771 77.883 194.771 77.883 194.996C77.883 197.837 76.3358 198.99 73.4948 198.99C70.7381 198.99 69.0503 198.034 69.0503 195.024V188.245C69.0503 185.319 70.4286 184.053 73.4948 184.053C77.4892 184.053 77.6298 186.585 77.6298 186.866C77.6298 187.12 78.0236 187.148 78.0236 186.866C78.0236 184.532 75.6607 183.744 73.4948 183.744ZM93.4872 189.567V182.506C93.4872 182.366 93.5997 182.253 93.7403 182.253H96.9471C97.0877 182.253 97.2003 182.366 97.2003 182.506V200.566C97.2003 200.706 97.0877 200.819 96.9471 200.819H93.7403C93.5997 200.819 93.4872 200.706 93.4872 200.566V193.083H88.9302V200.566C88.9302 200.706 88.8176 200.819 88.677 200.819H85.4702C85.3296 200.819 85.2452 200.706 85.2452 200.566V182.506C85.2452 182.366 85.3296 182.253 85.4702 182.253H88.677C88.8176 182.253 88.9302 182.366 88.9302 182.506V189.567H93.4872ZM86.8767 199.075C86.8767 199.3 87.2424 199.272 87.2424 199.075V191.536H95.1468V199.075C95.1468 199.272 95.4562 199.3 95.4562 199.075V183.941C95.4562 183.744 95.1468 183.688 95.1468 183.941V191.142H87.2424V183.941C87.2424 183.744 86.8767 183.744 86.8767 183.941V199.075ZM109.091 182C111.51 182 113.198 182.534 114.267 183.688C115.111 184.616 115.505 185.938 115.505 187.823V195.221C115.505 197.162 115.111 198.512 114.267 199.412C113.17 200.537 111.51 201.1 109.091 201.1C106.588 201.1 104.956 200.537 103.887 199.412C103.072 198.512 102.622 197.162 102.622 195.221V187.823C102.622 185.938 103.072 184.616 103.887 183.66C104.984 182.534 106.644 182 109.091 182ZM111.764 194.377V188.751C111.764 186.276 110.442 185.769 109.232 185.769H108.894C107.094 185.769 106.391 186.923 106.391 188.751V194.377C106.391 196.852 107.713 197.387 108.894 197.387H109.232C111.032 197.387 111.736 196.177 111.764 194.377ZM104.394 188.02V194.996C104.394 196.318 104.731 197.415 105.519 198.231C106.25 198.962 107.375 199.356 108.754 199.356H109.485C112.129 199.356 113.845 197.668 113.845 194.996V188.02C113.845 185.151 112.326 183.603 109.485 183.603H108.754C105.885 183.603 104.394 185.151 104.394 188.02ZM109.485 198.99H108.754C107.432 198.99 106.447 198.653 105.744 197.949C105.041 197.246 104.675 196.262 104.675 194.996V188.02C104.675 185.347 106.11 183.941 108.754 183.941H109.485C112.157 183.941 113.48 185.319 113.48 188.02V194.996C113.48 196.177 113.114 197.246 112.354 197.978C111.623 198.596 110.638 198.99 109.485 198.99ZM127.002 182.253C130.125 182.253 132.009 184.025 132.009 187.316V190.861C132.009 193.871 130.153 195.896 127.002 195.896H124.639V200.566C124.639 200.706 124.527 200.819 124.386 200.819H121.151C121.039 200.819 120.954 200.706 120.954 200.566V182.506C120.954 182.366 121.039 182.253 121.151 182.253H127.002ZM128.324 190.017V188.16C128.324 186.219 127.424 186.023 125.455 186.023H124.639V192.211H125.455C127.002 192.211 128.324 191.93 128.324 190.017ZM130.321 190.664V187.148C130.321 184.053 127.93 183.8 126.636 183.8H122.839C122.783 183.8 122.67 183.885 122.67 183.969V199.103C122.67 199.3 123.008 199.3 123.008 199.103V194.321H126.383C128.859 194.321 130.321 193.449 130.321 190.664ZM123.008 184.166H126.636C129.759 184.166 129.956 186.219 129.956 187.148V190.664C129.956 193.533 128.155 193.927 126.383 193.927H123.008V184.166ZM147.051 193.477C146.657 194.293 146.094 194.911 145.307 195.277L147.67 200.481C147.754 200.65 147.642 200.819 147.473 200.819H144.013C143.9 200.819 143.844 200.762 143.816 200.678L141.622 195.896H140.187V200.566C140.187 200.706 140.075 200.819 139.934 200.819H136.699C136.587 200.819 136.502 200.706 136.502 200.566V182.506C136.502 182.366 136.587 182.253 136.699 182.253H142.55C145.672 182.253 147.557 184.025 147.557 187.316V190.861C147.557 191.845 147.388 192.774 147.051 193.477ZM143.872 189.989V188.16C143.872 186.191 143.141 185.994 141.003 185.994H140.187V192.211H141.003C142.775 192.211 143.816 192.183 143.872 189.989ZM138.556 199.103V194.293H142.606L144.969 199.159C145.026 199.3 145.363 199.243 145.279 198.99L142.916 194.208C145.11 193.899 145.869 192.746 145.869 190.664V187.148C145.869 184.053 143.056 183.8 142.184 183.8H138.387C138.331 183.8 138.218 183.885 138.218 183.969V199.103C138.218 199.3 138.556 199.3 138.556 199.103ZM145.532 187.148V190.664C145.532 193.533 143.703 193.927 141.931 193.927H138.556V184.166H142.184C145.222 184.166 145.532 186.219 145.532 187.148ZM159.167 182C161.586 182 163.274 182.534 164.343 183.688C165.187 184.616 165.581 185.938 165.581 187.823V195.221C165.581 197.162 165.187 198.512 164.343 199.412C163.246 200.537 161.586 201.1 159.167 201.1C156.663 201.1 155.032 200.537 153.963 199.412C153.147 198.512 152.697 197.162 152.697 195.221V187.823C152.697 185.938 153.147 184.616 153.963 183.66C155.06 182.534 156.72 182 159.167 182ZM161.839 194.377V188.751C161.839 186.276 160.517 185.769 159.308 185.769H158.97C157.17 185.769 156.467 186.923 156.467 188.751V194.377C156.467 196.852 157.789 197.387 158.97 197.387H159.308C161.108 197.387 161.811 196.177 161.839 194.377ZM154.469 188.02V194.996C154.469 196.318 154.807 197.415 155.594 198.231C156.326 198.962 157.451 199.356 158.829 199.356H159.561C162.205 199.356 163.921 197.668 163.921 194.996V188.02C163.921 185.151 162.402 183.603 159.561 183.603H158.829C155.96 183.603 154.469 185.151 154.469 188.02ZM159.561 198.99H158.829C157.507 198.99 156.523 198.653 155.82 197.949C155.116 197.246 154.751 196.262 154.751 194.996V188.02C154.751 185.347 156.185 183.941 158.829 183.941H159.561C162.233 183.941 163.555 185.319 163.555 188.02V194.996C163.555 196.177 163.189 197.246 162.43 197.978C161.699 198.596 160.714 198.99 159.561 198.99ZM176.853 194.068C176.712 194.068 176.6 193.955 176.6 193.814V190.805C176.6 190.664 176.712 190.551 176.853 190.551H183.294C183.435 190.551 183.548 190.664 183.548 190.805V195.221C183.548 199.356 181.325 201.1 177.134 201.1C173.224 201.1 170.664 199.553 170.664 195.221V187.823C170.664 183.744 172.943 182 177.134 182C181.072 182 183.548 183.519 183.548 187.823V188.414C183.548 188.554 183.435 188.667 183.294 188.667H180.06C179.919 188.667 179.806 188.554 179.806 188.414V188.048C179.806 186.332 178.709 185.769 177.275 185.769H176.937C176.009 185.769 175.39 186.023 174.968 186.585C174.574 187.12 174.434 187.823 174.434 188.751V194.321C174.434 196.768 175.756 197.303 176.937 197.303H177.275C178.991 197.303 179.806 196.121 179.806 194.321V194.068H176.853ZM172.38 195.024C172.38 198.146 173.899 199.3 177.106 199.3C180.481 199.3 181.86 197.893 181.86 194.433V192.324C181.86 192.239 181.804 192.127 181.747 192.127H177.837C177.584 192.127 177.64 192.492 177.837 192.492H181.522V194.433C181.522 197.443 180.369 198.99 177.106 198.99C174.405 198.99 172.718 198.034 172.718 195.024V188.245C172.718 185.347 174.04 184.053 177.106 184.053C179.384 184.053 181.466 185.319 181.297 187.26C181.297 187.485 181.607 187.542 181.663 187.288C181.663 184.813 179.413 183.744 177.106 183.744C174.293 183.744 172.38 184.757 172.38 188.245V195.024ZM199.405 193.477C199.011 194.293 198.449 194.911 197.661 195.277L200.024 200.481C200.108 200.65 199.996 200.819 199.827 200.819H196.367C196.254 200.819 196.198 200.762 196.17 200.678L193.976 195.896H192.541V200.566C192.541 200.706 192.429 200.819 192.288 200.819H189.053C188.941 200.819 188.856 200.706 188.856 200.566V182.506C188.856 182.366 188.941 182.253 189.053 182.253H194.904C198.027 182.253 199.911 184.025 199.911 187.316V190.861C199.911 191.845 199.743 192.774 199.405 193.477ZM196.226 189.989V188.16C196.226 186.191 195.495 185.994 193.357 185.994H192.541V192.211H193.357C195.129 192.211 196.17 192.183 196.226 189.989ZM190.91 199.103V194.293H194.96L197.323 199.159C197.38 199.3 197.717 199.243 197.633 198.99L195.27 194.208C197.464 193.899 198.224 192.746 198.224 190.664V187.148C198.224 184.053 195.411 183.8 194.539 183.8H190.741C190.685 183.8 190.572 183.885 190.572 183.969V199.103C190.572 199.3 190.91 199.3 190.91 199.103ZM197.886 187.148V190.664C197.886 193.533 196.058 193.927 194.285 193.927H190.91V184.166H194.539C197.577 184.166 197.886 186.219 197.886 187.148ZM208.933 182.422C208.961 182.338 209.018 182.253 209.13 182.253H212.618C212.731 182.253 212.787 182.338 212.815 182.422L217.681 200.509C217.71 200.678 217.597 200.819 217.428 200.819H214.222C214.137 200.819 214.053 200.762 214.025 200.65L212.928 196.712H208.821L207.752 200.65C207.724 200.762 207.667 200.819 207.555 200.819H204.32C204.151 200.819 204.039 200.678 204.067 200.509L208.933 182.422ZM209.721 193.224H212.056L210.846 188.976L209.721 193.224ZM214.053 194.883L215.347 199.103C215.403 199.272 215.712 199.243 215.628 199.018L211.127 184.053C211.043 183.688 210.565 183.66 210.48 184.053L206.12 199.018C206.036 199.215 206.345 199.3 206.43 199.131L207.667 194.883H214.053ZM207.752 194.518L210.818 184.166L213.94 194.518H207.752ZM237.674 182.253C237.815 182.253 237.927 182.366 237.927 182.506V200.566C237.927 200.706 237.815 200.819 237.674 200.819H234.608C234.523 200.819 234.383 200.706 234.383 200.566V190.158L231.288 200.65C231.232 200.762 231.176 200.819 231.063 200.819H228.841C228.757 200.819 228.644 200.762 228.616 200.65L225.719 189.961V200.566C225.719 200.706 225.606 200.819 225.466 200.819H222.343C222.231 200.819 222.146 200.706 222.146 200.566V182.506C222.146 182.366 222.231 182.253 222.343 182.253H226.281C226.394 182.253 226.506 182.338 226.535 182.422L229.938 193.814L233.679 182.422C233.679 182.338 233.764 182.253 233.876 182.253H237.674ZM235.93 199.103C235.93 199.3 236.296 199.356 236.296 199.103V183.941C236.296 183.885 236.211 183.8 236.127 183.8H234.805C234.692 183.8 234.664 183.885 234.608 183.941L229.938 197.865L225.297 183.913C225.297 183.828 225.241 183.8 225.156 183.8H223.778C223.693 183.8 223.609 183.885 223.609 183.969V199.103C223.609 199.3 223.975 199.356 223.975 199.103V184.166H225.016L229.769 198.456C229.882 198.653 229.966 198.596 230.107 198.456L234.889 184.166H235.93V199.103ZM259.27 182.253C259.41 182.253 259.523 182.366 259.523 182.506V200.566C259.523 200.706 259.41 200.819 259.27 200.819H256.204C256.119 200.819 255.978 200.706 255.978 200.566V190.158L252.884 200.65C252.828 200.762 252.772 200.819 252.659 200.819H250.437C250.353 200.819 250.24 200.762 250.212 200.65L247.315 189.961V200.566C247.315 200.706 247.202 200.819 247.061 200.819H243.939C243.827 200.819 243.742 200.706 243.742 200.566V182.506C243.742 182.366 243.827 182.253 243.939 182.253H247.877C247.99 182.253 248.102 182.338 248.13 182.422L251.534 193.814L255.275 182.422C255.275 182.338 255.36 182.253 255.472 182.253H259.27ZM257.526 199.103C257.526 199.3 257.891 199.356 257.891 199.103V183.941C257.891 183.885 257.807 183.8 257.723 183.8H256.4C256.288 183.8 256.26 183.885 256.204 183.941L251.534 197.865L246.893 183.913C246.893 183.828 246.836 183.8 246.752 183.8H245.374C245.289 183.8 245.205 183.885 245.205 183.969V199.103C245.205 199.3 245.571 199.356 245.571 199.103V184.166H246.611L251.365 198.456C251.478 198.653 251.562 198.596 251.703 198.456L256.485 184.166H257.526V199.103ZM265.563 200.819C265.422 200.819 265.338 200.706 265.338 200.566V182.506C265.338 182.366 265.422 182.253 265.563 182.253H275.127C275.268 182.253 275.38 182.366 275.38 182.506V185.516C275.38 185.657 275.268 185.769 275.127 185.769H269.051V189.595H273.777C273.917 189.595 274.002 189.708 274.002 189.848V192.914C274.002 193.055 273.917 193.167 273.777 193.167H269.051V197.303H275.127C275.268 197.303 275.38 197.415 275.38 197.556V200.566C275.38 200.706 275.268 200.819 275.127 200.819H265.563ZM266.969 184.025V198.99C266.969 199.159 267.082 199.215 267.194 199.215H273.664C273.917 199.215 273.861 198.878 273.664 198.878H267.335V191.536H272.511C272.68 191.536 272.68 191.142 272.511 191.142H267.335V184.166H273.664C273.861 184.166 273.917 183.8 273.664 183.8H267.194C267.082 183.8 266.969 183.885 266.969 184.025ZM291.209 193.477C290.816 194.293 290.253 194.911 289.465 195.277L291.828 200.481C291.913 200.65 291.8 200.819 291.631 200.819H288.171C288.059 200.819 288.003 200.762 287.974 200.678L285.78 195.896H284.346V200.566C284.346 200.706 284.233 200.819 284.093 200.819H280.858C280.745 200.819 280.661 200.706 280.661 200.566V182.506C280.661 182.366 280.745 182.253 280.858 182.253H286.709C289.831 182.253 291.716 184.025 291.716 187.316V190.861C291.716 191.845 291.547 192.774 291.209 193.477ZM288.031 189.989V188.16C288.031 186.191 287.299 185.994 285.162 185.994H284.346V192.211H285.162C286.934 192.211 287.975 192.183 288.031 189.989ZM282.714 199.103V194.293H286.765L289.128 199.159C289.184 199.3 289.522 199.243 289.437 198.99L287.074 194.208C289.268 193.899 290.028 192.746 290.028 190.664V187.148C290.028 184.053 287.215 183.8 286.343 183.8H282.545C282.489 183.8 282.377 183.885 282.377 183.969V199.103C282.377 199.3 282.714 199.3 282.714 199.103ZM289.69 187.148V190.664C289.69 193.533 287.862 193.927 286.09 193.927H282.714V184.166H286.343C289.381 184.166 289.69 186.219 289.69 187.148Z" fill="#2E4356"/>
<path d="M45.2495 206.166C45.3417 206.166 45.4155 206.24 45.4155 206.332V216.012H49.3983C49.4905 216.012 49.5643 216.086 49.5643 216.178V218.17C49.5643 218.262 49.4905 218.336 49.3983 218.336H43.1475C43.0553 218.336 43 218.262 43 218.17V206.332C43 206.24 43.0553 206.166 43.1475 206.166H45.2495ZM44.1063 207.291V217.211C44.1063 217.248 44.1432 217.303 44.217 217.303H48.4764C48.6239 217.303 48.6239 217.063 48.4764 217.063H44.3092V207.291C44.3092 207.162 44.1063 207.143 44.1063 207.291ZM57.1828 206C58.7685 206 59.8749 206.35 60.5755 207.106C61.1287 207.715 61.3868 208.581 61.3868 209.817V214.666C61.3868 215.939 61.1287 216.824 60.5755 217.414C59.8564 218.151 58.7685 218.52 57.1828 218.52C55.5417 218.52 54.4722 218.151 53.7716 217.414C53.2368 216.824 52.9418 215.939 52.9418 214.666V209.817C52.9418 208.581 53.2368 207.715 53.7716 207.088C54.4907 206.35 55.5786 206 57.1828 206ZM58.9345 214.113V210.425C58.9345 208.803 58.0678 208.471 57.275 208.471H57.0537C55.8736 208.471 55.4126 209.227 55.4126 210.425V214.113C55.4126 215.736 56.2793 216.086 57.0537 216.086H57.275C58.4551 216.086 58.916 215.293 58.9345 214.113ZM54.1035 209.946V214.519C54.1035 215.385 54.3247 216.105 54.841 216.639C55.3204 217.119 56.058 217.377 56.9615 217.377H57.4409C59.1742 217.377 60.2989 216.27 60.2989 214.519V209.946C60.2989 208.065 59.3032 207.051 57.4409 207.051H56.9615C55.0807 207.051 54.1035 208.065 54.1035 209.946ZM57.4409 217.137H56.9615C56.0949 217.137 55.4495 216.916 54.9885 216.455C54.5276 215.994 54.2879 215.349 54.2879 214.519V209.946C54.2879 208.194 55.2282 207.272 56.9615 207.272H57.4409C59.1926 207.272 60.0592 208.176 60.0592 209.946V214.519C60.0592 215.293 59.8195 215.994 59.3217 216.473C58.8423 216.879 58.1969 217.137 57.4409 217.137ZM67.2168 206.277L69.2451 213.91L71.3287 206.277C71.3655 206.221 71.4024 206.166 71.4762 206.166H73.5782C73.6888 206.166 73.7626 206.258 73.7257 206.369L70.5358 218.225C70.4989 218.299 70.462 218.336 70.3883 218.336H68.1018C68.0465 218.336 67.9912 218.299 67.9728 218.225L64.7828 206.369C64.7644 206.258 64.8382 206.166 64.9488 206.166H67.0693C67.143 206.166 67.1799 206.221 67.2168 206.277ZM69.2082 217.063L66.1289 207.235C66.0736 207.088 65.8707 207.18 65.926 207.291L68.9869 217.137C69.0607 217.414 69.3557 217.432 69.4479 217.137L72.3981 207.291C72.435 207.18 72.2322 207.106 72.1953 207.235L69.2082 217.063ZM77.472 218.336C77.3799 218.336 77.3245 218.262 77.3245 218.17V206.332C77.3245 206.24 77.3799 206.166 77.472 206.166H83.7413C83.8335 206.166 83.9072 206.24 83.9072 206.332V208.305C83.9072 208.397 83.8335 208.471 83.7413 208.471H79.7585V210.978H82.8562C82.9484 210.978 83.0037 211.052 83.0037 211.144V213.154C83.0037 213.246 82.9484 213.32 82.8562 213.32H79.7585V216.031H83.7413C83.8335 216.031 83.9072 216.105 83.9072 216.197V218.17C83.9072 218.262 83.8335 218.336 83.7413 218.336H77.472ZM78.394 207.328V217.137C78.394 217.248 78.4677 217.285 78.5415 217.285H82.7825C82.9484 217.285 82.9115 217.063 82.7825 217.063H78.6337V212.251H82.0265C82.1371 212.251 82.1371 211.993 82.0265 211.993H78.6337V207.42H82.7825C82.9115 207.42 82.9484 207.18 82.7825 207.18H78.5415C78.4677 207.18 78.394 207.235 78.394 207.328ZM101.763 214.076V213.505C101.763 213.412 101.836 213.339 101.929 213.339H104.031C104.123 213.339 104.197 213.412 104.197 213.505V214.666C104.197 217.377 102.74 218.52 99.9924 218.52C97.4294 218.52 95.7515 217.506 95.7515 214.666V209.817C95.7515 207.088 97.245 206 99.9924 206C102.592 206 104.197 206.996 104.197 209.817V210.204C104.197 210.296 104.123 210.37 104.031 210.37H101.91C101.818 210.37 101.744 210.296 101.744 210.204V209.909C101.744 208.895 100.988 208.471 100.085 208.471H99.8634C99.2549 208.471 98.8492 208.637 98.5726 209.006C98.3145 209.356 98.2223 209.817 98.2223 210.425V214.076C98.2223 215.68 99.1258 216.031 99.8634 216.031H100.085C101.246 216.031 101.726 215.256 101.763 214.076ZM99.9556 207.143C97.9826 207.143 96.8394 207.844 96.8394 210.093V214.537C96.8394 216.584 97.8904 217.34 99.9556 217.34C101.892 217.34 103.053 216.639 103.053 214.519C103.053 214.371 102.832 214.371 102.832 214.519C102.832 216.381 101.818 217.137 99.9556 217.137C98.1485 217.137 97.0422 216.51 97.0422 214.537V210.093C97.0422 208.176 97.9457 207.346 99.9556 207.346C102.574 207.346 102.666 209.006 102.666 209.19C102.666 209.356 102.924 209.374 102.924 209.19C102.924 207.659 101.375 207.143 99.9556 207.143ZM112.35 206C113.936 206 115.042 206.35 115.743 207.106C116.296 207.715 116.554 208.581 116.554 209.817V214.666C116.554 215.939 116.296 216.824 115.743 217.414C115.023 218.151 113.936 218.52 112.35 218.52C110.709 218.52 109.639 218.151 108.939 217.414C108.404 216.824 108.109 215.939 108.109 214.666V209.817C108.109 208.581 108.404 207.715 108.939 207.088C109.658 206.35 110.746 206 112.35 206ZM114.101 214.113V210.425C114.101 208.803 113.235 208.471 112.442 208.471H112.221C111.041 208.471 110.58 209.227 110.58 210.425V214.113C110.58 215.736 111.446 216.086 112.221 216.086H112.442C113.622 216.086 114.083 215.293 114.101 214.113ZM109.27 209.946V214.519C109.27 215.385 109.492 216.105 110.008 216.639C110.487 217.119 111.225 217.377 112.128 217.377H112.608C114.341 217.377 115.466 216.27 115.466 214.519V209.946C115.466 208.065 114.47 207.051 112.608 207.051H112.128C110.248 207.051 109.27 208.065 109.27 209.946ZM112.608 217.137H112.128C111.262 217.137 110.616 216.916 110.156 216.455C109.695 215.994 109.455 215.349 109.455 214.519V209.946C109.455 208.194 110.395 207.272 112.128 207.272H112.608C114.36 207.272 115.226 208.176 115.226 209.946V214.519C115.226 215.293 114.987 215.994 114.489 216.473C114.009 216.879 113.364 217.137 112.608 217.137ZM125.574 206.166C126.828 206.166 127.768 206.516 128.395 207.199C128.948 207.807 129.225 208.711 129.225 209.817V214.703C129.225 216.934 127.934 218.336 125.574 218.336H120.964C120.872 218.336 120.816 218.262 120.816 218.17V206.332C120.816 206.24 120.872 206.166 120.964 206.166H125.574ZM126.809 214.15V210.37C126.809 209.208 126.201 208.471 124.91 208.471H123.25V216.031H124.91C126.016 216.031 126.809 215.312 126.809 214.15ZM121.941 207.291V217.211C121.941 217.285 122.015 217.303 122.052 217.303H125.057C127.178 217.303 128.137 216.031 128.137 214.851V210.13C128.137 208.176 127.104 207.18 125.002 207.18H122.052C122.015 207.18 121.941 207.199 121.941 207.291ZM127.915 210.13V214.851C127.915 216.326 126.44 217.1 125.057 217.1H122.162V207.42H125.002C126.938 207.42 127.915 208.286 127.915 210.13ZM133.635 218.336C133.543 218.336 133.487 218.262 133.487 218.17V206.332C133.487 206.24 133.543 206.166 133.635 206.166H135.737C135.829 206.166 135.903 206.24 135.903 206.332V218.17C135.903 218.262 135.829 218.336 135.737 218.336H133.635ZM134.594 207.272V217.211C134.594 217.377 134.796 217.377 134.796 217.211V207.272C134.796 207.143 134.594 207.143 134.594 207.272ZM145.365 206.332C145.365 206.24 145.439 206.166 145.531 206.166H147.652C147.744 206.166 147.818 206.24 147.818 206.332V218.17C147.818 218.262 147.744 218.336 147.652 218.336H145.605C145.531 218.336 145.457 218.299 145.439 218.243L142.747 212.177V218.17C142.747 218.262 142.673 218.336 142.581 218.336H140.479C140.387 218.336 140.331 218.262 140.331 218.17V206.332C140.331 206.24 140.387 206.166 140.479 206.166H142.655C142.728 206.166 142.765 206.221 142.784 206.258L145.365 212.214V206.332ZM146.693 217.229V207.272C146.693 207.143 146.453 207.106 146.453 207.272V216.75L141.64 207.235C141.585 207.162 141.438 207.162 141.438 207.272V217.211C141.438 217.377 141.659 217.377 141.659 217.211V207.752L146.453 217.248C146.527 217.377 146.693 217.34 146.693 217.229ZM156.137 213.91C156.044 213.91 155.971 213.837 155.971 213.744V211.771C155.971 211.679 156.044 211.605 156.137 211.605H160.359C160.451 211.605 160.525 211.679 160.525 211.771V214.666C160.525 217.377 159.068 218.52 156.321 218.52C153.758 218.52 152.08 217.506 152.08 214.666V209.817C152.08 207.143 153.574 206 156.321 206C158.903 206 160.525 206.996 160.525 209.817V210.204C160.525 210.296 160.451 210.37 160.359 210.37H158.239C158.147 210.37 158.073 210.296 158.073 210.204V209.964C158.073 208.84 157.354 208.471 156.413 208.471H156.192C155.584 208.471 155.178 208.637 154.901 209.006C154.643 209.356 154.551 209.817 154.551 210.425V214.076C154.551 215.68 155.418 216.031 156.192 216.031H156.413C157.538 216.031 158.073 215.256 158.073 214.076V213.91H156.137ZM153.205 214.537C153.205 216.584 154.201 217.34 156.303 217.34C158.515 217.34 159.419 216.418 159.419 214.15V212.767C159.419 212.712 159.382 212.638 159.345 212.638H156.782C156.616 212.638 156.653 212.878 156.782 212.878H159.198V214.15C159.198 216.123 158.442 217.137 156.303 217.137C154.533 217.137 153.426 216.51 153.426 214.537V210.093C153.426 208.194 154.293 207.346 156.303 207.346C157.796 207.346 159.161 208.176 159.05 209.448C159.05 209.596 159.253 209.632 159.29 209.467C159.29 207.844 157.815 207.143 156.303 207.143C154.459 207.143 153.205 207.807 153.205 210.093V214.537ZM174.932 206.277C174.951 206.221 174.988 206.166 175.061 206.166H177.348C177.422 206.166 177.459 206.221 177.477 206.277L180.667 218.133C180.685 218.243 180.612 218.336 180.501 218.336H178.399C178.344 218.336 178.288 218.299 178.27 218.225L177.551 215.644H174.859L174.158 218.225C174.14 218.299 174.103 218.336 174.029 218.336H171.908C171.798 218.336 171.724 218.243 171.742 218.133L174.932 206.277ZM175.449 213.357H176.979L176.186 210.573L175.449 213.357ZM178.288 214.445L179.136 217.211C179.173 217.321 179.376 217.303 179.321 217.156L176.371 207.346C176.315 207.106 176.002 207.088 175.947 207.346L173.089 217.156C173.033 217.285 173.236 217.34 173.291 217.229L174.103 214.445H178.288ZM174.158 214.205L176.168 207.42L178.215 214.205H174.158ZM188.433 210.868C189.834 211.532 191.66 212.583 191.66 214.482C191.66 215.035 191.568 216.105 190.959 217.008C190.277 218.022 189.207 218.52 187.732 218.52C186.165 218.52 184.339 217.764 183.768 216.049C183.749 215.994 183.768 215.939 183.823 215.902L185.52 214.445C185.593 214.39 185.704 214.39 185.759 214.482C185.796 214.574 185.87 214.722 185.962 214.906C186.239 215.478 186.902 216.049 187.64 216.049C188.212 216.049 188.986 215.736 188.986 214.851C188.986 214.002 187.824 213.523 187.105 213.246C186.276 212.915 185.427 212.49 184.708 211.864C183.952 211.163 183.583 210.388 183.583 209.467C183.583 207.162 185.704 206 187.714 206C189.3 206 190.48 206.83 191.254 208.471C191.291 208.545 191.254 208.637 191.199 208.674L189.558 209.817C189.484 209.854 189.447 209.854 189.373 209.762C188.746 208.858 188.193 208.434 187.456 208.434C187.068 208.434 186.165 208.581 186.165 209.264C186.165 210.093 187.695 210.518 188.433 210.868ZM185.077 215.957C185.538 216.879 186.81 217.414 187.843 217.414C189.189 217.414 190.277 216.492 190.424 215.09C190.609 213.376 189.263 212.638 187.935 211.974L187.345 211.716C185.981 211.108 184.985 210.647 184.985 209.374C184.985 207.973 186.276 207.328 187.548 207.328C188.71 207.328 189.318 208.01 189.631 208.434C189.742 208.581 189.926 208.452 189.816 208.305C189.502 207.918 188.839 207.106 187.548 207.106C186.091 207.106 184.764 207.825 184.764 209.374C184.764 210.757 185.87 211.292 187.271 211.937L187.843 212.214C189.668 213.081 190.332 213.892 190.185 215.072C189.908 216.953 188.47 217.192 187.843 217.192C186.46 217.192 185.538 216.363 185.261 215.846C185.169 215.754 185.04 215.846 185.077 215.957ZM207.358 206.166C209.404 206.166 210.64 207.328 210.64 209.485V211.808C210.64 213.781 209.423 215.109 207.358 215.109H205.809V218.17C205.809 218.262 205.735 218.336 205.643 218.336H203.522C203.449 218.336 203.393 218.262 203.393 218.17V206.332C203.393 206.24 203.449 206.166 203.522 206.166H207.358ZM208.224 211.255V210.038C208.224 208.766 207.634 208.637 206.344 208.637H205.809V212.693H206.344C207.358 212.693 208.224 212.509 208.224 211.255ZM209.534 211.679V209.374C209.534 207.346 207.966 207.18 207.118 207.18H204.629C204.592 207.18 204.518 207.235 204.518 207.291V217.211C204.518 217.34 204.739 217.34 204.739 217.211V214.076H206.952C208.575 214.076 209.534 213.505 209.534 211.679ZM204.739 207.42H207.118C209.165 207.42 209.294 208.766 209.294 209.374V211.679C209.294 213.56 208.114 213.818 206.952 213.818H204.739V207.42ZM218.424 210.868C219.826 211.532 221.651 212.583 221.651 214.482C221.651 215.035 221.559 216.105 220.95 217.008C220.268 218.022 219.199 218.52 217.724 218.52C216.156 218.52 214.331 217.764 213.759 216.049C213.741 215.994 213.759 215.939 213.815 215.902L215.511 214.445C215.585 214.39 215.695 214.39 215.751 214.482C215.788 214.574 215.861 214.722 215.953 214.906C216.23 215.478 216.894 216.049 217.631 216.049C218.203 216.049 218.977 215.736 218.977 214.851C218.977 214.002 217.816 213.523 217.097 213.246C216.267 212.915 215.419 212.49 214.7 211.864C213.944 211.163 213.575 210.388 213.575 209.467C213.575 207.162 215.695 206 217.705 206C219.291 206 220.471 206.83 221.245 208.471C221.282 208.545 221.245 208.637 221.19 208.674L219.549 209.817C219.475 209.854 219.438 209.854 219.365 209.762C218.738 208.858 218.185 208.434 217.447 208.434C217.06 208.434 216.156 208.581 216.156 209.264C216.156 210.093 217.687 210.518 218.424 210.868ZM215.068 215.957C215.529 216.879 216.802 217.414 217.834 217.414C219.18 217.414 220.268 216.492 220.416 215.09C220.6 213.376 219.254 212.638 217.926 211.974L217.336 211.716C215.972 211.108 214.976 210.647 214.976 209.374C214.976 207.973 216.267 207.328 217.539 207.328C218.701 207.328 219.309 208.01 219.623 208.434C219.733 208.581 219.918 208.452 219.807 208.305C219.494 207.918 218.83 207.106 217.539 207.106C216.083 207.106 214.755 207.825 214.755 209.374C214.755 210.757 215.861 211.292 217.263 211.937L217.834 212.214C219.66 213.081 220.324 213.892 220.176 215.072C219.899 216.953 218.461 217.192 217.834 217.192C216.451 217.192 215.529 216.363 215.253 215.846C215.161 215.754 215.032 215.846 215.068 215.957ZM226.836 206.258L228.44 209.356L230.007 206.258C230.062 206.166 230.081 206.166 230.155 206.166H232.22C232.331 206.166 232.404 206.277 232.367 206.369L229.694 212.583V218.17C229.694 218.262 229.62 218.336 229.528 218.336H227.352C227.297 218.336 227.223 218.262 227.223 218.17V212.583L224.476 206.406C224.439 206.277 224.494 206.166 224.623 206.166H226.688C226.762 206.166 226.78 206.166 226.836 206.258ZM228.532 212.159L230.837 207.364C230.892 207.254 230.708 207.162 230.634 207.291L228.44 211.882L226.19 207.291C226.117 207.162 225.914 207.254 225.969 207.383L228.329 212.159V217.248C228.329 217.377 228.532 217.395 228.532 217.248V212.159ZM241.682 214.076V213.505C241.682 213.412 241.756 213.339 241.848 213.339H243.95C244.042 213.339 244.116 213.412 244.116 213.505V214.666C244.116 217.377 242.66 218.52 239.912 218.52C237.349 218.52 235.671 217.506 235.671 214.666V209.817C235.671 207.088 237.165 206 239.912 206C242.512 206 244.116 206.996 244.116 209.817V210.204C244.116 210.296 244.042 210.37 243.95 210.37H241.83C241.738 210.37 241.664 210.296 241.664 210.204V209.909C241.664 208.895 240.908 208.471 240.004 208.471H239.783C239.175 208.471 238.769 208.637 238.492 209.006C238.234 209.356 238.142 209.817 238.142 210.425V214.076C238.142 215.68 239.045 216.031 239.783 216.031H240.004C241.166 216.031 241.645 215.256 241.682 214.076ZM239.875 207.143C237.902 207.143 236.759 207.844 236.759 210.093V214.537C236.759 216.584 237.81 217.34 239.875 217.34C241.811 217.34 242.973 216.639 242.973 214.519C242.973 214.371 242.752 214.371 242.752 214.519C242.752 216.381 241.738 217.137 239.875 217.137C238.068 217.137 236.962 216.51 236.962 214.537V210.093C236.962 208.176 237.865 207.346 239.875 207.346C242.494 207.346 242.586 209.006 242.586 209.19C242.586 209.356 242.844 209.374 242.844 209.19C242.844 207.659 241.295 207.143 239.875 207.143ZM253.671 210.96V206.332C253.671 206.24 253.745 206.166 253.837 206.166H255.939C256.031 206.166 256.105 206.24 256.105 206.332V218.17C256.105 218.262 256.031 218.336 255.939 218.336H253.837C253.745 218.336 253.671 218.262 253.671 218.17V213.265H250.684V218.17C250.684 218.262 250.61 218.336 250.518 218.336H248.416C248.324 218.336 248.268 218.262 248.268 218.17V206.332C248.268 206.24 248.324 206.166 248.416 206.166H250.518C250.61 206.166 250.684 206.24 250.684 206.332V210.96H253.671ZM249.338 217.192C249.338 217.34 249.577 217.321 249.577 217.192V212.251H254.759V217.192C254.759 217.321 254.962 217.34 254.962 217.192V207.272C254.962 207.143 254.759 207.106 254.759 207.272V211.993H249.577V207.272C249.577 207.143 249.338 207.143 249.338 207.272V217.192ZM264.59 206C266.176 206 267.282 206.35 267.983 207.106C268.536 207.715 268.794 208.581 268.794 209.817V214.666C268.794 215.939 268.536 216.824 267.983 217.414C267.264 218.151 266.176 218.52 264.59 218.52C262.949 218.52 261.879 218.151 261.179 217.414C260.644 216.824 260.349 215.939 260.349 214.666V209.817C260.349 208.581 260.644 207.715 261.179 207.088C261.898 206.35 262.986 206 264.59 206ZM266.342 214.113V210.425C266.342 208.803 265.475 208.471 264.682 208.471H264.461C263.281 208.471 262.82 209.227 262.82 210.425V214.113C262.82 215.736 263.686 216.086 264.461 216.086H264.682C265.862 216.086 266.323 215.293 266.342 214.113ZM261.511 209.946V214.519C261.511 215.385 261.732 216.105 262.248 216.639C262.728 217.119 263.465 217.377 264.369 217.377H264.848C266.581 217.377 267.706 216.27 267.706 214.519V209.946C267.706 208.065 266.71 207.051 264.848 207.051H264.369C262.488 207.051 261.511 208.065 261.511 209.946ZM264.848 217.137H264.369C263.502 217.137 262.857 216.916 262.396 216.455C261.935 215.994 261.695 215.349 261.695 214.519V209.946C261.695 208.194 262.635 207.272 264.369 207.272H264.848C266.6 207.272 267.466 208.176 267.466 209.946V214.519C267.466 215.293 267.227 215.994 266.729 216.473C266.249 216.879 265.604 217.137 264.848 217.137Z" fill="#2E4356"/>
</g>
<defs>
<clipPath id="clip0_201_59">
<rect width="312.5" height="318.161" fill="white"/>
</clipPath>
</defs>
</svg>
